<svg xmlns="http://www.w3.org/2000/svg" width="880" height="170" viewBox="0 0 880 170" font-family="Inter, Liberation Sans, Arial, Helvetica, sans-serif" role="img" aria-labelledby="karyon-title karyon-desc"><title id="karyon-title">A coding sequence read as protein: rpoB codons 439 to 465, NC_000962.3:761121-761200</title><desc id="karyon-desc">A karyon figure over NC_000962.3:761121-761200, with 3 tracks, drawn top to bottom: variants, rpoB and a ruler.</desc><defs><clipPath id="karyon-clip-0"><rect x="76.585" y="43" width="785.415" height="34"/></clipPath><clipPath id="karyon-clip-1"><rect x="76.585" y="89" width="785.415" height="29"/></clipPath><clipPath id="karyon-clip-2"><rect x="76.585" y="130" width="785.415" height="26"/></clipPath></defs><rect x="0" y="0" width="880" height="170" fill="#ffffff"/><text x="16" y="31" fill="#1a1233" font-size="17" text-anchor="start" font-weight="bold">A coding sequence read as protein: rpoB codons 439 to 465</text><text x="66.585" y="63.85" fill="#5b5480" font-size="11" text-anchor="end" font-weight="600" letter-spacing="0.03em">variants</text><g clip-path="url(#karyon-clip-0)"><line x1="76.585" y1="76.5" x2="862" y2="76.5" stroke="#e4def5" stroke-width="0.8"/><g><title>variant, 761,155, S450L</title><line x1="415.295" y1="77" x2="415.295" y2="63.5" stroke="#1634c2" stroke-width="1.2"/><circle cx="415.295" cy="63.5" r="4.8" fill="#ffffff"/><circle cx="415.295" cy="63.5" r="4" fill="#1634c2"/></g><g><title>variant, 761,140, H445Y</title><line x1="268.03" y1="77" x2="268.03" y2="63.5" stroke="#e63f9f" stroke-width="1.2"/><rect x="263.23" y="58.7" width="9.6" height="9.6" fill="#ffffff"/><rect x="264.03" y="59.5" width="8" height="8" fill="#e63f9f"/></g><g><title>S450L, colour #1634c2</title><circle cx="81.585" cy="51.25" r="4" fill="#1634c2"/><text x="91.585" y="54.925" fill="#5b5480" font-size="10.5" text-anchor="start">S450L</text></g><g><title>H445Y, colour #e63f9f</title><rect x="141.156" y="47.25" width="8" height="8" fill="#e63f9f"/><text x="155.156" y="54.925" fill="#5b5480" font-size="10.5" text-anchor="start">H445Y</text></g></g><text x="66.585" y="107.35" fill="#5b5480" font-size="11" text-anchor="end" font-weight="600" letter-spacing="0.03em">rpoB</text><g clip-path="url(#karyon-clip-1)"><g><title>codon 439, 761,121 to 761,123, L</title><rect x="76.585" y="90" width="29.453" height="13" fill="#f1f3fb"/><text x="91.312" y="100.64" fill="#1a1233" font-size="11.5" text-anchor="middle">L</text></g><g><title>codon 440, 761,124 to 761,126, L</title><rect x="106.038" y="90" width="29.453" height="13" fill="#dee3f6"/><text x="120.765" y="100.64" fill="#1a1233" font-size="11.5" text-anchor="middle">L</text></g><g><title>codon 441, 761,127 to 761,129, L</title><rect x="135.491" y="90" width="29.453" height="13" fill="#f1f3fb"/><text x="150.218" y="100.64" fill="#1a1233" font-size="11.5" text-anchor="middle">L</text></g><g><title>codon 442, 761,130 to 761,132, L</title><rect x="164.944" y="90" width="29.453" height="13" fill="#dee3f6"/><text x="179.671" y="100.64" fill="#1a1233" font-size="11.5" text-anchor="middle">L</text></g><g><title>codon 443, 761,133 to 761,135, L</title><rect x="194.397" y="90" width="29.453" height="13" fill="#f1f3fb"/><text x="209.124" y="100.64" fill="#1a1233" font-size="11.5" text-anchor="middle">L</text></g><g><title>codon 444, 761,136 to 761,138, L</title><rect x="223.85" y="90" width="29.453" height="13" fill="#dee3f6"/><text x="238.577" y="100.64" fill="#1a1233" font-size="11.5" text-anchor="middle">L</text></g><g><title>codon 445, 761,139 to 761,141, H</title><rect x="253.303" y="90" width="29.453" height="13" fill="#f1f3fb"/><text x="268.03" y="100.64" fill="#1a1233" font-size="11.5" text-anchor="middle">H</text></g><g><title>codon 446, 761,142 to 761,144, L</title><rect x="282.756" y="90" width="29.453" height="13" fill="#dee3f6"/><text x="297.483" y="100.64" fill="#1a1233" font-size="11.5" text-anchor="middle">L</text></g><g><title>codon 447, 761,145 to 761,147, L</title><rect x="312.21" y="90" width="29.453" height="13" fill="#f1f3fb"/><text x="326.936" y="100.64" fill="#1a1233" font-size="11.5" text-anchor="middle">L</text></g><g><title>codon 448, 761,148 to 761,150, L</title><rect x="341.663" y="90" width="29.453" height="13" fill="#dee3f6"/><text x="356.389" y="100.64" fill="#1a1233" font-size="11.5" text-anchor="middle">L</text></g><g><title>codon 449, 761,151 to 761,153, L</title><rect x="371.116" y="90" width="29.453" height="13" fill="#f1f3fb"/><text x="385.842" y="100.64" fill="#1a1233" font-size="11.5" text-anchor="middle">L</text></g><g><title>codon 450, 761,154 to 761,156, S</title><rect x="400.569" y="90" width="29.453" height="13" fill="#dee3f6"/><text x="415.295" y="100.64" fill="#1a1233" font-size="11.5" text-anchor="middle">S</text></g><g><title>codon 451, 761,157 to 761,159, L</title><rect x="430.022" y="90" width="29.453" height="13" fill="#f1f3fb"/><text x="444.748" y="100.64" fill="#1a1233" font-size="11.5" text-anchor="middle">L</text></g><g><title>codon 452, 761,160 to 761,162, L</title><rect x="459.475" y="90" width="29.453" height="13" fill="#dee3f6"/><text x="474.201" y="100.64" fill="#1a1233" font-size="11.5" text-anchor="middle">L</text></g><g><title>codon 453, 761,163 to 761,165, L</title><rect x="488.928" y="90" width="29.453" height="13" fill="#f1f3fb"/><text x="503.654" y="100.64" fill="#1a1233" font-size="11.5" text-anchor="middle">L</text></g><g><title>codon 454, 761,166 to 761,168, L</title><rect x="518.381" y="90" width="29.453" height="13" fill="#dee3f6"/><text x="533.107" y="100.64" fill="#1a1233" font-size="11.5" text-anchor="middle">L</text></g><g><title>codon 455, 761,169 to 761,171, L</title><rect x="547.834" y="90" width="29.453" height="13" fill="#f1f3fb"/><text x="562.561" y="100.64" fill="#1a1233" font-size="11.5" text-anchor="middle">L</text></g><g><title>codon 456, 761,172 to 761,174, L</title><rect x="577.287" y="90" width="29.453" height="13" fill="#dee3f6"/><text x="592.014" y="100.64" fill="#1a1233" font-size="11.5" text-anchor="middle">L</text></g><g><title>codon 457, 761,175 to 761,177, L</title><rect x="606.74" y="90" width="29.453" height="13" fill="#f1f3fb"/><text x="621.467" y="100.64" fill="#1a1233" font-size="11.5" text-anchor="middle">L</text></g><g><title>codon 458, 761,178 to 761,180, L</title><rect x="636.193" y="90" width="29.453" height="13" fill="#dee3f6"/><text x="650.92" y="100.64" fill="#1a1233" font-size="11.5" text-anchor="middle">L</text></g><g><title>codon 459, 761,181 to 761,183, L</title><rect x="665.646" y="90" width="29.453" height="13" fill="#f1f3fb"/><text x="680.373" y="100.64" fill="#1a1233" font-size="11.5" text-anchor="middle">L</text></g><g><title>codon 460, 761,184 to 761,186, L</title><rect x="695.099" y="90" width="29.453" height="13" fill="#dee3f6"/><text x="709.826" y="100.64" fill="#1a1233" font-size="11.5" text-anchor="middle">L</text></g><g><title>codon 461, 761,187 to 761,189, L</title><rect x="724.552" y="90" width="29.453" height="13" fill="#f1f3fb"/><text x="739.279" y="100.64" fill="#1a1233" font-size="11.5" text-anchor="middle">L</text></g><g><title>codon 462, 761,190 to 761,192, L</title><rect x="754.005" y="90" width="29.453" height="13" fill="#dee3f6"/><text x="768.732" y="100.64" fill="#1a1233" font-size="11.5" text-anchor="middle">L</text></g><g><title>codon 463, 761,193 to 761,195, L</title><rect x="783.459" y="90" width="29.453" height="13" fill="#f1f3fb"/><text x="798.185" y="100.64" fill="#1a1233" font-size="11.5" text-anchor="middle">L</text></g><g><title>codon 464, 761,196 to 761,198, L</title><rect x="812.912" y="90" width="29.453" height="13" fill="#dee3f6"/><text x="827.638" y="100.64" fill="#1a1233" font-size="11.5" text-anchor="middle">L</text></g><g><title>codon 465, 761,199 to 761,201, L</title><rect x="842.365" y="90" width="29.453" height="13" fill="#f1f3fb"/><text x="857.091" y="100.64" fill="#1a1233" font-size="11.5" text-anchor="middle">L</text></g><line x1="76.585" y1="103.5" x2="862" y2="103.5" stroke="#1a1233" stroke-width="1"/><line x1="91.312" y1="103.5" x2="91.312" y2="106.5" stroke="#1a1233" stroke-width="1"/><text x="91.312" y="114.5" fill="#5b5480" font-size="11.5" text-anchor="middle">439</text><line x1="120.765" y1="103.5" x2="120.765" y2="106.5" stroke="#1a1233" stroke-width="1"/><text x="120.765" y="114.5" fill="#5b5480" font-size="11.5" text-anchor="middle">440</text><line x1="150.218" y1="103.5" x2="150.218" y2="106.5" stroke="#1a1233" stroke-width="1"/><text x="150.218" y="114.5" fill="#5b5480" font-size="11.5" text-anchor="middle">441</text><line x1="179.671" y1="103.5" x2="179.671" y2="106.5" stroke="#1a1233" stroke-width="1"/><text x="179.671" y="114.5" fill="#5b5480" font-size="11.5" text-anchor="middle">442</text><line x1="209.124" y1="103.5" x2="209.124" y2="106.5" stroke="#1a1233" stroke-width="1"/><text x="209.124" y="114.5" fill="#5b5480" font-size="11.5" text-anchor="middle">443</text><line x1="238.577" y1="103.5" x2="238.577" y2="106.5" stroke="#1a1233" stroke-width="1"/><text x="238.577" y="114.5" fill="#5b5480" font-size="11.5" text-anchor="middle">444</text><line x1="268.03" y1="103.5" x2="268.03" y2="106.5" stroke="#1a1233" stroke-width="1"/><text x="268.03" y="114.5" fill="#5b5480" font-size="11.5" text-anchor="middle">445</text><line x1="297.483" y1="103.5" x2="297.483" y2="106.5" stroke="#1a1233" stroke-width="1"/><text x="297.483" y="114.5" fill="#5b5480" font-size="11.5" text-anchor="middle">446</text><line x1="326.936" y1="103.5" x2="326.936" y2="106.5" stroke="#1a1233" stroke-width="1"/><text x="326.936" y="114.5" fill="#5b5480" font-size="11.5" text-anchor="middle">447</text><line x1="356.389" y1="103.5" x2="356.389" y2="106.5" stroke="#1a1233" stroke-width="1"/><text x="356.389" y="114.5" fill="#5b5480" font-size="11.5" text-anchor="middle">448</text><line x1="385.842" y1="103.5" x2="385.842" y2="106.5" stroke="#1a1233" stroke-width="1"/><text x="385.842" y="114.5" fill="#5b5480" font-size="11.5" text-anchor="middle">449</text><line x1="415.295" y1="103.5" x2="415.295" y2="106.5" stroke="#1a1233" stroke-width="1"/><text x="415.295" y="114.5" fill="#5b5480" font-size="11.5" text-anchor="middle">450</text><line x1="444.748" y1="103.5" x2="444.748" y2="106.5" stroke="#1a1233" stroke-width="1"/><text x="444.748" y="114.5" fill="#5b5480" font-size="11.5" text-anchor="middle">451</text><line x1="474.201" y1="103.5" x2="474.201" y2="106.5" stroke="#1a1233" stroke-width="1"/><text x="474.201" y="114.5" fill="#5b5480" font-size="11.5" text-anchor="middle">452</text><line x1="503.654" y1="103.5" x2="503.654" y2="106.5" stroke="#1a1233" stroke-width="1"/><text x="503.654" y="114.5" fill="#5b5480" font-size="11.5" text-anchor="middle">453</text><line x1="533.107" y1="103.5" x2="533.107" y2="106.5" stroke="#1a1233" stroke-width="1"/><text x="533.107" y="114.5" fill="#5b5480" font-size="11.5" text-anchor="middle">454</text><line x1="562.561" y1="103.5" x2="562.561" y2="106.5" stroke="#1a1233" stroke-width="1"/><text x="562.561" y="114.5" fill="#5b5480" font-size="11.5" text-anchor="middle">455</text><line x1="592.014" y1="103.5" x2="592.014" y2="106.5" stroke="#1a1233" stroke-width="1"/><text x="592.014" y="114.5" fill="#5b5480" font-size="11.5" text-anchor="middle">456</text><line x1="621.467" y1="103.5" x2="621.467" y2="106.5" stroke="#1a1233" stroke-width="1"/><text x="621.467" y="114.5" fill="#5b5480" font-size="11.5" text-anchor="middle">457</text><line x1="650.92" y1="103.5" x2="650.92" y2="106.5" stroke="#1a1233" stroke-width="1"/><text x="650.92" y="114.5" fill="#5b5480" font-size="11.5" text-anchor="middle">458</text><line x1="680.373" y1="103.5" x2="680.373" y2="106.5" stroke="#1a1233" stroke-width="1"/><text x="680.373" y="114.5" fill="#5b5480" font-size="11.5" text-anchor="middle">459</text><line x1="709.826" y1="103.5" x2="709.826" y2="106.5" stroke="#1a1233" stroke-width="1"/><text x="709.826" y="114.5" fill="#5b5480" font-size="11.5" text-anchor="middle">460</text><line x1="739.279" y1="103.5" x2="739.279" y2="106.5" stroke="#1a1233" stroke-width="1"/><text x="739.279" y="114.5" fill="#5b5480" font-size="11.5" text-anchor="middle">461</text><line x1="768.732" y1="103.5" x2="768.732" y2="106.5" stroke="#1a1233" stroke-width="1"/><text x="768.732" y="114.5" fill="#5b5480" font-size="11.5" text-anchor="middle">462</text><line x1="798.185" y1="103.5" x2="798.185" y2="106.5" stroke="#1a1233" stroke-width="1"/><text x="798.185" y="114.5" fill="#5b5480" font-size="11.5" text-anchor="middle">463</text><line x1="827.638" y1="103.5" x2="827.638" y2="106.5" stroke="#1a1233" stroke-width="1"/><text x="827.638" y="114.5" fill="#5b5480" font-size="11.5" text-anchor="middle">464</text><line x1="857.091" y1="103.5" x2="857.091" y2="106.5" stroke="#1a1233" stroke-width="1"/></g><g clip-path="url(#karyon-clip-2)"><line x1="76.585" y1="130.5" x2="862" y2="130.5" stroke="#e4def5" stroke-width="1.2"/><line x1="164.944" y1="130.5" x2="164.944" y2="135.5" stroke="#adaac0" stroke-width="1.2"/><text x="164.944" y="147" fill="#5b5480" font-size="11.5" text-anchor="middle" font-family="JetBrains Mono, Liberation Mono, Menlo, Consolas, monospace">761.13 kb</text><line x1="263.121" y1="130.5" x2="263.121" y2="135.5" stroke="#adaac0" stroke-width="1.2"/><text x="263.121" y="147" fill="#5b5480" font-size="11.5" text-anchor="middle" font-family="JetBrains Mono, Liberation Mono, Menlo, Consolas, monospace">761.14 kb</text><line x1="361.298" y1="130.5" x2="361.298" y2="135.5" stroke="#adaac0" stroke-width="1.2"/><text x="361.298" y="147" fill="#5b5480" font-size="11.5" text-anchor="middle" font-family="JetBrains Mono, Liberation Mono, Menlo, Consolas, monospace">761.15 kb</text><line x1="459.475" y1="130.5" x2="459.475" y2="135.5" stroke="#adaac0" stroke-width="1.2"/><text x="459.475" y="147" fill="#5b5480" font-size="11.5" text-anchor="middle" font-family="JetBrains Mono, Liberation Mono, Menlo, Consolas, monospace">761.16 kb</text><line x1="557.652" y1="130.5" x2="557.652" y2="135.5" stroke="#adaac0" stroke-width="1.2"/><text x="557.652" y="147" fill="#5b5480" font-size="11.5" text-anchor="middle" font-family="JetBrains Mono, Liberation Mono, Menlo, Consolas, monospace">761.17 kb</text><line x1="655.829" y1="130.5" x2="655.829" y2="135.5" stroke="#adaac0" stroke-width="1.2"/><text x="655.829" y="147" fill="#5b5480" font-size="11.5" text-anchor="middle" font-family="JetBrains Mono, Liberation Mono, Menlo, Consolas, monospace">761.18 kb</text><line x1="754.005" y1="130.5" x2="754.005" y2="135.5" stroke="#adaac0" stroke-width="1.2"/><text x="754.005" y="147" fill="#5b5480" font-size="11.5" text-anchor="middle" font-family="JetBrains Mono, Liberation Mono, Menlo, Consolas, monospace">761.19 kb</text><line x1="852.182" y1="130.5" x2="852.182" y2="135.5" stroke="#adaac0" stroke-width="1.2"/><text x="862" y="147" fill="#5b5480" font-size="11.5" text-anchor="end" font-family="JetBrains Mono, Liberation Mono, Menlo, Consolas, monospace">761.20 kb</text></g></svg>