<svg xmlns="http://www.w3.org/2000/svg" width="720" height="173" viewBox="0 0 720 173" font-family="Liberation Sans, Arial, Helvetica, sans-serif" role="img" aria-labelledby="karyon-title karyon-desc"><title id="karyon-title">The same idea on a protein, coloured by residue class, alignment:1-22</title><desc id="karyon-desc">A karyon figure over alignment:1-22, with 2 tracks, drawn top to bottom: KatG.</desc><defs><clipPath id="karyon-clip-0"><rect x="64" y="42" width="638" height="79"/></clipPath><clipPath id="karyon-clip-1"><rect x="144.25" y="133" width="557.75" height="26"/></clipPath></defs><rect x="0" y="0" width="720" height="173" fill="#ffffff"/><text x="16" y="30" fill="#1b1f23" font-size="16" text-anchor="start" font-weight="bold">The same idea on a protein, coloured by residue class</text><text x="54" y="85.7" fill="#1b1f23" font-size="12" text-anchor="end">KatG</text><g clip-path="url(#karyon-clip-0)"><g><title>KatG_H37Rv, 22 columns, 0 mismatches</title><rect x="144.25" y="42" width="25.352" height="15" fill="#9ec9e2"/><rect x="169.602" y="42" width="25.352" height="15" fill="#cdb1d6"/><rect x="194.955" y="42" width="25.352" height="15" fill="#9edaca"/><rect x="220.307" y="42" width="25.352" height="15" fill="#ecccde"/><rect x="245.659" y="42" width="25.352" height="15" fill="#efc29e"/><rect x="271.011" y="42" width="50.705" height="15" fill="#cdb1d6"/><rect x="321.716" y="42" width="25.352" height="15" fill="#9ec9e2"/><rect x="347.068" y="42" width="25.352" height="15" fill="#ecccde"/><rect x="372.42" y="42" width="25.352" height="15" fill="#9edaca"/><rect x="397.773" y="42" width="76.057" height="15" fill="#ecccde"/><rect x="473.83" y="42" width="25.352" height="15" fill="#f6db9e"/><rect x="499.182" y="42" width="50.705" height="15" fill="#9ec9e2"/><rect x="549.886" y="42" width="50.705" height="15" fill="#ecccde"/><rect x="600.591" y="42" width="25.352" height="15" fill="#f6db9e"/><rect x="625.943" y="42" width="25.352" height="15" fill="#9ec9e2"/><rect x="651.295" y="42" width="25.352" height="15" fill="#cdb1d6"/><rect x="676.648" y="42" width="25.352" height="15" fill="#9ec9e2"/><text x="156.926" y="55.875" fill="#1b1f23" font-size="17.708" text-anchor="middle">M</text><text x="182.278" y="55.875" fill="#1b1f23" font-size="17.708" text-anchor="middle">P</text><text x="207.631" y="55.875" fill="#1b1f23" font-size="17.708" text-anchor="middle">E</text><text x="232.983" y="55.875" fill="#1b1f23" font-size="17.708" text-anchor="middle">Q</text><text x="258.335" y="55.875" fill="#1b1f23" font-size="17.708" text-anchor="middle">H</text><text x="283.688" y="55.875" fill="#1b1f23" font-size="17.708" text-anchor="middle">P</text><text x="309.04" y="55.875" fill="#1b1f23" font-size="17.708" text-anchor="middle">P</text><text x="334.392" y="55.875" fill="#1b1f23" font-size="17.708" text-anchor="middle">I</text><text x="359.744" y="55.875" fill="#1b1f23" font-size="17.708" text-anchor="middle">T</text><text x="385.097" y="55.875" fill="#1b1f23" font-size="17.708" text-anchor="middle">E</text><text x="410.449" y="55.875" fill="#1b1f23" font-size="17.708" text-anchor="middle">T</text><text x="435.801" y="55.875" fill="#1b1f23" font-size="17.708" text-anchor="middle">T</text><text x="461.153" y="55.875" fill="#1b1f23" font-size="17.708" text-anchor="middle">T</text><text x="486.506" y="55.875" fill="#1b1f23" font-size="17.708" text-anchor="middle">G</text><text x="511.858" y="55.875" fill="#1b1f23" font-size="17.708" text-anchor="middle">A</text><text x="537.21" y="55.875" fill="#1b1f23" font-size="17.708" text-anchor="middle">A</text><text x="562.563" y="55.875" fill="#1b1f23" font-size="17.708" text-anchor="middle">S</text><text x="587.915" y="55.875" fill="#1b1f23" font-size="17.708" text-anchor="middle">N</text><text x="613.267" y="55.875" fill="#1b1f23" font-size="17.708" text-anchor="middle">G</text><text x="638.619" y="55.875" fill="#1b1f23" font-size="17.708" text-anchor="middle">C</text><text x="663.972" y="55.875" fill="#1b1f23" font-size="17.708" text-anchor="middle">P</text><text x="689.324" y="55.875" fill="#1b1f23" font-size="17.708" text-anchor="middle">V</text><text x="140.25" y="53" fill="#1b1f23" font-size="10" text-anchor="end">KatG_H37Rv</text></g><g><title>KatG_CDC1551, 22 columns, 0 mismatches</title><rect x="144.25" y="58" width="25.352" height="15" fill="#9ec9e2"/><rect x="169.602" y="58" width="25.352" height="15" fill="#cdb1d6"/><rect x="194.955" y="58" width="25.352" height="15" fill="#9edaca"/><rect x="220.307" y="58" width="25.352" height="15" fill="#ecccde"/><rect x="245.659" y="58" width="25.352" height="15" fill="#efc29e"/><rect x="271.011" y="58" width="50.705" height="15" fill="#cdb1d6"/><rect x="321.716" y="58" width="25.352" height="15" fill="#9ec9e2"/><rect x="347.068" y="58" width="25.352" height="15" fill="#ecccde"/><rect x="372.42" y="58" width="25.352" height="15" fill="#9edaca"/><rect x="397.773" y="58" width="76.057" height="15" fill="#ecccde"/><rect x="473.83" y="58" width="25.352" height="15" fill="#f6db9e"/><rect x="499.182" y="58" width="50.705" height="15" fill="#9ec9e2"/><rect x="549.886" y="58" width="50.705" height="15" fill="#ecccde"/><rect x="600.591" y="58" width="25.352" height="15" fill="#f6db9e"/><rect x="625.943" y="58" width="25.352" height="15" fill="#9ec9e2"/><rect x="651.295" y="58" width="25.352" height="15" fill="#cdb1d6"/><rect x="676.648" y="58" width="25.352" height="15" fill="#9ec9e2"/><text x="156.926" y="71.875" fill="#1b1f23" font-size="17.708" text-anchor="middle">M</text><text x="182.278" y="71.875" fill="#1b1f23" font-size="17.708" text-anchor="middle">P</text><text x="207.631" y="71.875" fill="#1b1f23" font-size="17.708" text-anchor="middle">E</text><text x="232.983" y="71.875" fill="#1b1f23" font-size="17.708" text-anchor="middle">Q</text><text x="258.335" y="71.875" fill="#1b1f23" font-size="17.708" text-anchor="middle">H</text><text x="283.688" y="71.875" fill="#1b1f23" font-size="17.708" text-anchor="middle">P</text><text x="309.04" y="71.875" fill="#1b1f23" font-size="17.708" text-anchor="middle">P</text><text x="334.392" y="71.875" fill="#1b1f23" font-size="17.708" text-anchor="middle">I</text><text x="359.744" y="71.875" fill="#1b1f23" font-size="17.708" text-anchor="middle">T</text><text x="385.097" y="71.875" fill="#1b1f23" font-size="17.708" text-anchor="middle">E</text><text x="410.449" y="71.875" fill="#1b1f23" font-size="17.708" text-anchor="middle">T</text><text x="435.801" y="71.875" fill="#1b1f23" font-size="17.708" text-anchor="middle">T</text><text x="461.153" y="71.875" fill="#1b1f23" font-size="17.708" text-anchor="middle">T</text><text x="486.506" y="71.875" fill="#1b1f23" font-size="17.708" text-anchor="middle">G</text><text x="511.858" y="71.875" fill="#1b1f23" font-size="17.708" text-anchor="middle">A</text><text x="537.21" y="71.875" fill="#1b1f23" font-size="17.708" text-anchor="middle">A</text><text x="562.563" y="71.875" fill="#1b1f23" font-size="17.708" text-anchor="middle">S</text><text x="587.915" y="71.875" fill="#1b1f23" font-size="17.708" text-anchor="middle">N</text><text x="613.267" y="71.875" fill="#1b1f23" font-size="17.708" text-anchor="middle">G</text><text x="638.619" y="71.875" fill="#1b1f23" font-size="17.708" text-anchor="middle">C</text><text x="663.972" y="71.875" fill="#1b1f23" font-size="17.708" text-anchor="middle">P</text><text x="689.324" y="71.875" fill="#1b1f23" font-size="17.708" text-anchor="middle">V</text><text x="140.25" y="69" fill="#1b1f23" font-size="10" text-anchor="end">KatG_CDC1551</text></g><g><title>KatG_S315T, 22 columns, 1 mismatch</title><rect x="144.25" y="74" width="25.352" height="15" fill="#9ec9e2"/><rect x="169.602" y="74" width="25.352" height="15" fill="#cdb1d6"/><rect x="194.955" y="74" width="25.352" height="15" fill="#9edaca"/><rect x="220.307" y="74" width="25.352" height="15" fill="#ecccde"/><rect x="245.659" y="74" width="25.352" height="15" fill="#efc29e"/><rect x="271.011" y="74" width="50.705" height="15" fill="#cdb1d6"/><rect x="321.716" y="74" width="25.352" height="15" fill="#9ec9e2"/><rect x="347.068" y="74" width="25.352" height="15" fill="#ecccde"/><rect x="372.42" y="74" width="25.352" height="15" fill="#9edaca"/><rect x="397.773" y="74" width="76.057" height="15" fill="#ecccde"/><rect x="473.83" y="74" width="25.352" height="15" fill="#f6db9e"/><rect x="499.182" y="74" width="25.352" height="15" fill="#9ec9e2"/><rect x="524.534" y="74" width="76.057" height="15" fill="#ecccde"/><rect x="600.591" y="74" width="25.352" height="15" fill="#f6db9e"/><rect x="625.943" y="74" width="25.352" height="15" fill="#9ec9e2"/><rect x="651.295" y="74" width="25.352" height="15" fill="#cdb1d6"/><rect x="676.648" y="74" width="25.352" height="15" fill="#9ec9e2"/><text x="156.926" y="87.875" fill="#1b1f23" font-size="17.708" text-anchor="middle">M</text><text x="182.278" y="87.875" fill="#1b1f23" font-size="17.708" text-anchor="middle">P</text><text x="207.631" y="87.875" fill="#1b1f23" font-size="17.708" text-anchor="middle">E</text><text x="232.983" y="87.875" fill="#1b1f23" font-size="17.708" text-anchor="middle">Q</text><text x="258.335" y="87.875" fill="#1b1f23" font-size="17.708" text-anchor="middle">H</text><text x="283.688" y="87.875" fill="#1b1f23" font-size="17.708" text-anchor="middle">P</text><text x="309.04" y="87.875" fill="#1b1f23" font-size="17.708" text-anchor="middle">P</text><text x="334.392" y="87.875" fill="#1b1f23" font-size="17.708" text-anchor="middle">I</text><text x="359.744" y="87.875" fill="#1b1f23" font-size="17.708" text-anchor="middle">T</text><text x="385.097" y="87.875" fill="#1b1f23" font-size="17.708" text-anchor="middle">E</text><text x="410.449" y="87.875" fill="#1b1f23" font-size="17.708" text-anchor="middle">T</text><text x="435.801" y="87.875" fill="#1b1f23" font-size="17.708" text-anchor="middle">T</text><text x="461.153" y="87.875" fill="#1b1f23" font-size="17.708" text-anchor="middle">T</text><text x="486.506" y="87.875" fill="#1b1f23" font-size="17.708" text-anchor="middle">G</text><text x="511.858" y="87.875" fill="#1b1f23" font-size="17.708" text-anchor="middle">A</text><text x="537.21" y="87.875" fill="#1b1f23" font-size="17.708" text-anchor="middle">T</text><text x="562.563" y="87.875" fill="#1b1f23" font-size="17.708" text-anchor="middle">S</text><text x="587.915" y="87.875" fill="#1b1f23" font-size="17.708" text-anchor="middle">N</text><text x="613.267" y="87.875" fill="#1b1f23" font-size="17.708" text-anchor="middle">G</text><text x="638.619" y="87.875" fill="#1b1f23" font-size="17.708" text-anchor="middle">C</text><text x="663.972" y="87.875" fill="#1b1f23" font-size="17.708" text-anchor="middle">P</text><text x="689.324" y="87.875" fill="#1b1f23" font-size="17.708" text-anchor="middle">V</text><text x="140.25" y="85" fill="#1b1f23" font-size="10" text-anchor="end">KatG_S315T</text></g><g><title>KatG_Beijing, 22 columns, 1 mismatch</title><rect x="144.25" y="90" width="25.352" height="15" fill="#9ec9e2"/><rect x="169.602" y="90" width="25.352" height="15" fill="#cdb1d6"/><rect x="194.955" y="90" width="25.352" height="15" fill="#9edaca"/><rect x="220.307" y="90" width="25.352" height="15" fill="#ecccde"/><rect x="245.659" y="90" width="25.352" height="15" fill="#efc29e"/><rect x="271.011" y="90" width="50.705" height="15" fill="#cdb1d6"/><rect x="321.716" y="90" width="25.352" height="15" fill="#9ec9e2"/><rect x="347.068" y="90" width="25.352" height="15" fill="#ecccde"/><rect x="372.42" y="90" width="25.352" height="15" fill="#9edaca"/><rect x="397.773" y="90" width="76.057" height="15" fill="#ecccde"/><rect x="473.83" y="90" width="25.352" height="15" fill="#f6db9e"/><rect x="499.182" y="90" width="50.705" height="15" fill="#9ec9e2"/><rect x="549.886" y="90" width="50.705" height="15" fill="#ecccde"/><rect x="600.591" y="90" width="25.352" height="15" fill="#f6db9e"/><rect x="625.943" y="90" width="25.352" height="15" fill="#9ec9e2"/><rect x="651.295" y="90" width="25.352" height="15" fill="#cdb1d6"/><rect x="676.648" y="90" width="25.352" height="15" fill="#9ec9e2"/><text x="156.926" y="103.875" fill="#1b1f23" font-size="17.708" text-anchor="middle">M</text><text x="182.278" y="103.875" fill="#1b1f23" font-size="17.708" text-anchor="middle">P</text><text x="207.631" y="103.875" fill="#1b1f23" font-size="17.708" text-anchor="middle">E</text><text x="232.983" y="103.875" fill="#1b1f23" font-size="17.708" text-anchor="middle">Q</text><text x="258.335" y="103.875" fill="#1b1f23" font-size="17.708" text-anchor="middle">H</text><text x="283.688" y="103.875" fill="#1b1f23" font-size="17.708" text-anchor="middle">P</text><text x="309.04" y="103.875" fill="#1b1f23" font-size="17.708" text-anchor="middle">P</text><text x="334.392" y="103.875" fill="#1b1f23" font-size="17.708" text-anchor="middle">V</text><text x="359.744" y="103.875" fill="#1b1f23" font-size="17.708" text-anchor="middle">T</text><text x="385.097" y="103.875" fill="#1b1f23" font-size="17.708" text-anchor="middle">E</text><text x="410.449" y="103.875" fill="#1b1f23" font-size="17.708" text-anchor="middle">T</text><text x="435.801" y="103.875" fill="#1b1f23" font-size="17.708" text-anchor="middle">T</text><text x="461.153" y="103.875" fill="#1b1f23" font-size="17.708" text-anchor="middle">T</text><text x="486.506" y="103.875" fill="#1b1f23" font-size="17.708" text-anchor="middle">G</text><text x="511.858" y="103.875" fill="#1b1f23" font-size="17.708" text-anchor="middle">A</text><text x="537.21" y="103.875" fill="#1b1f23" font-size="17.708" text-anchor="middle">A</text><text x="562.563" y="103.875" fill="#1b1f23" font-size="17.708" text-anchor="middle">S</text><text x="587.915" y="103.875" fill="#1b1f23" font-size="17.708" text-anchor="middle">N</text><text x="613.267" y="103.875" fill="#1b1f23" font-size="17.708" text-anchor="middle">G</text><text x="638.619" y="103.875" fill="#1b1f23" font-size="17.708" text-anchor="middle">C</text><text x="663.972" y="103.875" fill="#1b1f23" font-size="17.708" text-anchor="middle">P</text><text x="689.324" y="103.875" fill="#1b1f23" font-size="17.708" text-anchor="middle">V</text><text x="140.25" y="101" fill="#1b1f23" font-size="10" text-anchor="end">KatG_Beijing</text></g><g><title>KatG_Erdman, 22 columns, 0 mismatches, 1 gap</title><rect x="144.25" y="106" width="25.352" height="15" fill="#9ec9e2"/><rect x="169.602" y="106" width="25.352" height="15" fill="#cdb1d6"/><rect x="194.955" y="106" width="25.352" height="15" fill="#9edaca"/><rect x="220.307" y="106" width="25.352" height="15" fill="#ecccde"/><rect x="245.659" y="106" width="25.352" height="15" fill="#ebeef1"/><rect x="271.011" y="106" width="50.705" height="15" fill="#cdb1d6"/><rect x="321.716" y="106" width="25.352" height="15" fill="#9ec9e2"/><rect x="347.068" y="106" width="25.352" height="15" fill="#ecccde"/><rect x="372.42" y="106" width="25.352" height="15" fill="#9edaca"/><rect x="397.773" y="106" width="76.057" height="15" fill="#ecccde"/><rect x="473.83" y="106" width="25.352" height="15" fill="#f6db9e"/><rect x="499.182" y="106" width="50.705" height="15" fill="#9ec9e2"/><rect x="549.886" y="106" width="50.705" height="15" fill="#ecccde"/><rect x="600.591" y="106" width="25.352" height="15" fill="#f6db9e"/><rect x="625.943" y="106" width="25.352" height="15" fill="#9ec9e2"/><rect x="651.295" y="106" width="25.352" height="15" fill="#cdb1d6"/><rect x="676.648" y="106" width="25.352" height="15" fill="#9ec9e2"/><text x="156.926" y="119.875" fill="#1b1f23" font-size="17.708" text-anchor="middle">M</text><text x="182.278" y="119.875" fill="#1b1f23" font-size="17.708" text-anchor="middle">P</text><text x="207.631" y="119.875" fill="#1b1f23" font-size="17.708" text-anchor="middle">E</text><text x="232.983" y="119.875" fill="#1b1f23" font-size="17.708" text-anchor="middle">Q</text><text x="283.688" y="119.875" fill="#1b1f23" font-size="17.708" text-anchor="middle">P</text><text x="309.04" y="119.875" fill="#1b1f23" font-size="17.708" text-anchor="middle">P</text><text x="334.392" y="119.875" fill="#1b1f23" font-size="17.708" text-anchor="middle">I</text><text x="359.744" y="119.875" fill="#1b1f23" font-size="17.708" text-anchor="middle">T</text><text x="385.097" y="119.875" fill="#1b1f23" font-size="17.708" text-anchor="middle">E</text><text x="410.449" y="119.875" fill="#1b1f23" font-size="17.708" text-anchor="middle">T</text><text x="435.801" y="119.875" fill="#1b1f23" font-size="17.708" text-anchor="middle">T</text><text x="461.153" y="119.875" fill="#1b1f23" font-size="17.708" text-anchor="middle">T</text><text x="486.506" y="119.875" fill="#1b1f23" font-size="17.708" text-anchor="middle">G</text><text x="511.858" y="119.875" fill="#1b1f23" font-size="17.708" text-anchor="middle">A</text><text x="537.21" y="119.875" fill="#1b1f23" font-size="17.708" text-anchor="middle">A</text><text x="562.563" y="119.875" fill="#1b1f23" font-size="17.708" text-anchor="middle">S</text><text x="587.915" y="119.875" fill="#1b1f23" font-size="17.708" text-anchor="middle">N</text><text x="613.267" y="119.875" fill="#1b1f23" font-size="17.708" text-anchor="middle">G</text><text x="638.619" y="119.875" fill="#1b1f23" font-size="17.708" text-anchor="middle">C</text><text x="663.972" y="119.875" fill="#1b1f23" font-size="17.708" text-anchor="middle">P</text><text x="689.324" y="119.875" fill="#1b1f23" font-size="17.708" text-anchor="middle">V</text><text x="140.25" y="117" fill="#1b1f23" font-size="10" text-anchor="end">KatG_Erdman</text></g><line x1="169.602" y1="42" x2="169.602" y2="121" stroke="#ffffff" stroke-width="0.65"/><line x1="194.955" y1="42" x2="194.955" y2="121" stroke="#ffffff" stroke-width="0.65"/><line x1="220.307" y1="42" x2="220.307" y2="121" stroke="#ffffff" stroke-width="0.65"/><line x1="245.659" y1="42" x2="245.659" y2="121" stroke="#ffffff" stroke-width="0.65"/><line x1="271.011" y1="42" x2="271.011" y2="121" stroke="#ffffff" stroke-width="0.65"/><line x1="296.364" y1="42" x2="296.364" y2="121" stroke="#ffffff" stroke-width="0.65"/><line x1="321.716" y1="42" x2="321.716" y2="121" stroke="#ffffff" stroke-width="0.65"/><line x1="347.068" y1="42" x2="347.068" y2="121" stroke="#ffffff" stroke-width="0.65"/><line x1="372.42" y1="42" x2="372.42" y2="121" stroke="#ffffff" stroke-width="0.65"/><line x1="397.773" y1="42" x2="397.773" y2="121" stroke="#ffffff" stroke-width="0.65"/><line x1="423.125" y1="42" x2="423.125" y2="121" stroke="#ffffff" stroke-width="0.65"/><line x1="448.477" y1="42" x2="448.477" y2="121" stroke="#ffffff" stroke-width="0.65"/><line x1="473.83" y1="42" x2="473.83" y2="121" stroke="#ffffff" stroke-width="0.65"/><line x1="499.182" y1="42" x2="499.182" y2="121" stroke="#ffffff" stroke-width="0.65"/><line x1="524.534" y1="42" x2="524.534" y2="121" stroke="#ffffff" stroke-width="0.65"/><line x1="549.886" y1="42" x2="549.886" y2="121" stroke="#ffffff" stroke-width="0.65"/><line x1="575.239" y1="42" x2="575.239" y2="121" stroke="#ffffff" stroke-width="0.65"/><line x1="600.591" y1="42" x2="600.591" y2="121" stroke="#ffffff" stroke-width="0.65"/><line x1="625.943" y1="42" x2="625.943" y2="121" stroke="#ffffff" stroke-width="0.65"/><line x1="651.295" y1="42" x2="651.295" y2="121" stroke="#ffffff" stroke-width="0.65"/><line x1="676.648" y1="42" x2="676.648" y2="121" stroke="#ffffff" stroke-width="0.65"/></g><g clip-path="url(#karyon-clip-1)"><line x1="144.25" y1="133.5" x2="702" y2="133.5" stroke="#1b1f23" stroke-width="1.2"/><line x1="258.335" y1="133.5" x2="258.335" y2="138.5" stroke="#1b1f23" stroke-width="1.2"/><text x="258.335" y="150.5" fill="#4b5563" font-size="12" text-anchor="middle">5</text><line x1="385.097" y1="133.5" x2="385.097" y2="138.5" stroke="#1b1f23" stroke-width="1.2"/><text x="385.097" y="150.5" fill="#4b5563" font-size="12" text-anchor="middle">10</text><line x1="511.858" y1="133.5" x2="511.858" y2="138.5" stroke="#1b1f23" stroke-width="1.2"/><text x="511.858" y="150.5" fill="#4b5563" font-size="12" text-anchor="middle">15</text><line x1="638.619" y1="133.5" x2="638.619" y2="138.5" stroke="#1b1f23" stroke-width="1.2"/><text x="638.619" y="150.5" fill="#4b5563" font-size="12" text-anchor="middle">20</text></g></svg>