<svg xmlns="http://www.w3.org/2000/svg" width="900" height="203" viewBox="0 0 900 203" font-family="Helvetica, Arial, sans-serif"><defs><clipPath id="karyon-clip-0"><rect x="96" y="34" width="788" height="45"/></clipPath><clipPath id="karyon-clip-1"><rect x="96" y="89" width="788" height="18"/></clipPath><clipPath id="karyon-clip-2"><rect x="96" y="117" width="788" height="40"/></clipPath><clipPath id="karyon-clip-3"><rect x="96" y="167" width="788" height="26"/></clipPath></defs><rect x="0" y="0" width="900" height="203" fill="#ffffff"/><text x="12" y="24" fill="#1b1f23" font-size="14" text-anchor="start" font-weight="bold">The same locus at base resolution</text><text x="884" y="24" fill="#6b7280" font-size="11" text-anchor="end">NC_000962.3:761401-761460</text><text x="88" y="60.35" fill="#6b7280" font-size="11" text-anchor="end">depth</text><g clip-path="url(#karyon-clip-0)"><line x1="137" y1="79" x2="884" y2="79" stroke="#c8ccd1" stroke-width="1"/><path d="M137 79 L137 36.802 L138 36.802 L139 36.802 L140 36.802 L141 36.802 L142 36.802 L143 36.802 L144 36.802 L145 36.802 L146 36.802 L147 36.802 L148 36.802 L149 36.802 L150 42.924 L151 42.924 L152 42.924 L153 42.924 L154 42.924 L155 42.924 L156 42.924 L157 42.924 L158 42.924 L159 42.924 L160 42.924 L161 38.92 L162 38.92 L163 38.92 L164 38.92 L165 38.92 L166 38.92 L167 38.92 L168 38.92 L169 38.92 L170 38.92 L171 38.92 L172 38.92 L173 38.92 L174 38.92 L175 43.017 L176 43.017 L177 43.017 L178 43.017 L179 43.017 L180 43.017 L181 43.017 L182 43.017 L183 43.017 L184 43.017 L185 43.017 L186 39.689 L187 39.689 L188 39.689 L189 39.689 L190 39.689 L191 39.689 L192 39.689 L193 39.689 L194 39.689 L195 39.689 L196 39.689 L197 39.689 L198 39.689 L199 39.689 L200 41.761 L201 41.761 L202 41.761 L203 41.761 L204 41.761 L205 41.761 L206 41.761 L207 41.761 L208 41.761 L209 41.761 L210 41.761 L211 38.432 L212 38.432 L213 38.432 L214 38.432 L215 38.432 L216 38.432 L217 38.432 L218 38.432 L219 38.432 L220 38.432 L221 38.432 L222 38.432 L223 38.432 L224 38.432 L225 40.504 L226 40.504 L227 40.504 L228 40.504 L229 40.504 L230 40.504 L231 40.504 L232 40.504 L233 40.504 L234 40.504 L235 40.504 L236 38.526 L237 38.526 L238 38.526 L239 38.526 L240 38.526 L241 38.526 L242 38.526 L243 38.526 L244 38.526 L245 38.526 L246 38.526 L247 38.526 L248 38.526 L249 36.547 L250 36.547 L251 36.547 L252 36.547 L253 36.547 L254 36.547 L255 36.547 L256 36.547 L257 36.547 L258 36.547 L259 36.547 L260 36.547 L261 36.547 L262 39.969 L263 39.969 L264 39.969 L265 39.969 L266 39.969 L267 39.969 L268 39.969 L269 39.969 L270 39.969 L271 39.969 L272 39.969 L273 39.969 L274 42.716 L275 42.716 L276 42.716 L277 42.716 L278 42.716 L279 42.716 L280 42.716 L281 42.716 L282 42.716 L283 42.716 L284 42.716 L285 42.716 L286 42.716 L287 43.438 L288 43.438 L289 43.438 L290 43.438 L291 43.438 L292 43.438 L293 43.438 L294 43.438 L295 43.438 L296 43.438 L297 43.438 L298 43.438 L299 43.484 L300 43.484 L301 43.484 L302 43.484 L303 43.484 L304 43.484 L305 43.484 L306 43.484 L307 43.484 L308 43.484 L309 43.484 L310 43.484 L311 37.456 L312 37.456 L313 37.456 L314 37.456 L315 37.456 L316 37.456 L317 37.456 L318 37.456 L319 37.456 L320 37.456 L321 37.456 L322 37.456 L323 37.456 L324 37.502 L325 37.502 L326 37.502 L327 37.502 L328 37.502 L329 37.502 L330 37.502 L331 37.502 L332 37.502 L333 37.502 L334 37.502 L335 37.502 L336 37.502 L337 38.899 L338 38.899 L339 38.899 L340 38.899 L341 38.899 L342 38.899 L343 38.899 L344 38.899 L345 38.899 L346 38.899 L347 38.899 L348 38.899 L349 42.996 L350 42.996 L351 42.996 L352 42.996 L353 42.996 L354 42.996 L355 42.996 L356 42.996 L357 42.996 L358 42.996 L359 42.996 L360 42.996 L361 40.342 L362 40.342 L363 40.342 L364 40.342 L365 40.342 L366 40.342 L367 40.342 L368 40.342 L369 40.342 L370 40.342 L371 40.342 L372 40.342 L373 39.039 L374 39.039 L375 39.039 L376 39.039 L377 39.039 L378 39.039 L379 39.039 L380 39.039 L381 39.039 L382 39.039 L383 39.039 L384 39.039 L385 39.039 L386 40.435 L387 40.435 L388 40.435 L389 40.435 L390 40.435 L391 40.435 L392 40.435 L393 40.435 L394 40.435 L395 40.435 L396 40.435 L397 40.435 L398 40.435 L399 41.157 L400 41.157 L401 41.157 L402 41.157 L403 41.157 L404 41.157 L405 41.157 L406 41.157 L407 41.157 L408 41.157 L409 41.157 L410 41.157 L411 42.554 L412 42.554 L413 42.554 L414 42.554 L415 42.554 L416 42.554 L417 42.554 L418 42.554 L419 42.554 L420 42.554 L421 42.554 L422 42.554 L423 42.554 L424 43.95 L425 43.95 L426 43.95 L427 43.95 L428 43.95 L429 43.95 L430 43.95 L431 43.95 L432 43.95 L433 43.95 L434 43.95 L435 37.921 L436 37.921 L437 37.921 L438 37.921 L439 37.921 L440 37.921 L441 37.921 L442 37.921 L443 37.921 L444 37.921 L445 37.921 L446 37.921 L447 37.921 L448 37.921 L449 42.693 L450 42.693 L451 42.693 L452 42.693 L453 42.693 L454 42.693 L455 42.693 L456 42.693 L457 42.693 L458 42.693 L459 42.693 L460 42.693 L461 42.739 L462 42.739 L463 42.739 L464 42.739 L465 42.739 L466 42.739 L467 42.739 L468 42.739 L469 42.739 L470 42.739 L471 42.739 L472 42.739 L473 38.735 L474 38.735 L475 38.735 L476 38.735 L477 38.735 L478 38.735 L479 38.735 L480 38.735 L481 38.735 L482 38.735 L483 38.735 L484 38.735 L485 38.106 L486 38.106 L487 38.106 L488 38.106 L489 38.106 L490 38.106 L491 38.106 L492 38.106 L493 38.106 L494 38.106 L495 38.106 L496 38.106 L497 38.106 L498 38.106 L499 42.202 L500 42.202 L501 42.202 L502 42.202 L503 42.202 L504 42.202 L505 42.202 L506 42.202 L507 42.202 L508 42.202 L509 42.202 L510 42.202 L511 42.924 L512 42.924 L513 42.924 L514 42.924 L515 42.924 L516 42.924 L517 42.924 L518 42.924 L519 42.924 L520 42.924 L521 42.924 L522 41.619 L523 41.619 L524 41.619 L525 41.619 L526 41.619 L527 41.619 L528 41.619 L529 41.619 L530 41.619 L531 41.619 L532 41.619 L533 41.619 L534 41.619 L535 41.619 L536 42.34 L537 42.34 L538 42.34 L539 42.34 L540 42.34 L541 42.34 L542 42.34 L543 42.34 L544 42.34 L545 42.34 L546 42.34 L547 39.686 L548 39.686 L549 39.686 L550 39.686 L551 39.686 L552 39.686 L553 39.686 L554 39.686 L555 39.686 L556 39.686 L557 39.686 L558 39.686 L559 39.686 L560 38.382 L561 38.382 L562 38.382 L563 38.382 L564 38.382 L565 38.382 L566 38.382 L567 38.382 L568 38.382 L569 38.382 L570 38.382 L571 38.382 L572 38.382 L573 39.778 L574 39.778 L575 39.778 L576 39.778 L577 39.778 L578 39.778 L579 39.778 L580 39.778 L581 39.778 L582 39.778 L583 39.778 L584 39.778 L585 38.473 L586 38.473 L587 38.473 L588 38.473 L589 38.473 L590 38.473 L591 38.473 L592 38.473 L593 38.473 L594 38.473 L595 38.473 L596 38.473 L597 38.473 L598 38.519 L599 38.519 L600 38.519 L601 38.519 L602 38.519 L603 38.519 L604 38.519 L605 38.519 L606 38.519 L607 38.519 L608 38.519 L609 38.519 L610 38.519 L611 39.239 L612 39.239 L613 39.239 L614 39.239 L615 39.239 L616 39.239 L617 39.239 L618 39.239 L619 39.239 L620 39.239 L621 39.239 L622 39.239 L623 39.96 L624 39.96 L625 39.96 L626 39.96 L627 39.96 L628 39.96 L629 39.96 L630 39.96 L631 39.96 L632 39.96 L633 39.96 L634 39.96 L635 44.73 L636 44.73 L637 44.73 L638 44.73 L639 44.73 L640 44.73 L641 44.73 L642 44.73 L643 44.73 L644 44.73 L645 44.73 L646 44.73 L647 38.025 L648 38.025 L649 38.025 L650 38.025 L651 38.025 L652 38.025 L653 38.025 L654 38.025 L655 38.025 L656 38.025 L657 38.025 L658 38.025 L659 38.025 L660 42.121 L661 42.121 L662 42.121 L663 42.121 L664 42.121 L665 42.121 L666 42.121 L667 42.121 L668 42.121 L669 42.121 L670 42.121 L671 42.121 L672 42.121 L673 43.516 L674 43.516 L675 43.516 L676 43.516 L677 43.516 L678 43.516 L679 43.516 L680 43.516 L681 43.516 L682 43.516 L683 43.516 L684 38.16 L685 38.16 L686 38.16 L687 38.16 L688 38.16 L689 38.16 L690 38.16 L691 38.16 L692 38.16 L693 38.16 L694 38.16 L695 38.16 L696 38.16 L697 38.16 L698 38.88 L699 38.88 L700 38.88 L701 38.88 L702 38.88 L703 38.88 L704 38.88 L705 38.88 L706 38.88 L707 38.88 L708 38.88 L709 38.88 L710 40.95 L711 40.95 L712 40.95 L713 40.95 L714 40.95 L715 40.95 L716 40.95 L717 40.95 L718 40.95 L719 40.95 L720 40.95 L721 40.95 L722 39.645 L723 39.645 L724 39.645 L725 39.645 L726 39.645 L727 39.645 L728 39.645 L729 39.645 L730 39.645 L731 39.645 L732 39.645 L733 39.645 L734 39.645 L735 39.689 L736 39.689 L737 39.689 L738 39.689 L739 39.689 L740 39.689 L741 39.689 L742 39.689 L743 39.689 L744 39.689 L745 39.689 L746 39.689 L747 39.689 L748 43.109 L749 43.109 L750 43.109 L751 43.109 L752 43.109 L753 43.109 L754 43.109 L755 43.109 L756 43.109 L757 43.109 L758 43.109 L759 43.109 L760 43.153 L761 43.153 L762 43.153 L763 43.153 L764 43.153 L765 43.153 L766 43.153 L767 43.153 L768 43.153 L769 43.153 L770 43.153 L771 39.147 L772 39.147 L773 39.147 L774 39.147 L775 39.147 L776 39.147 L777 39.147 L778 39.147 L779 39.147 L780 39.147 L781 39.147 L782 39.147 L783 39.147 L784 39.147 L785 42.566 L786 42.566 L787 42.566 L788 42.566 L789 42.566 L790 42.566 L791 42.566 L792 42.566 L793 42.566 L794 42.566 L795 42.566 L796 40.585 L797 40.585 L798 40.585 L799 40.585 L800 40.585 L801 40.585 L802 40.585 L803 40.585 L804 40.585 L805 40.585 L806 40.585 L807 40.585 L808 40.585 L809 39.279 L810 39.279 L811 39.279 L812 39.279 L813 39.279 L814 39.279 L815 39.279 L816 39.279 L817 39.279 L818 39.279 L819 39.279 L820 39.279 L821 38.648 L822 38.648 L823 38.648 L824 38.648 L825 38.648 L826 38.648 L827 38.648 L828 38.648 L829 38.648 L830 38.648 L831 38.648 L832 38.648 L833 38.648 L834 38.648 L835 42.066 L836 42.066 L837 42.066 L838 42.066 L839 42.066 L840 42.066 L841 42.066 L842 42.066 L843 42.066 L844 42.066 L845 42.066 L846 41.435 L847 41.435 L848 41.435 L849 41.435 L850 41.435 L851 41.435 L852 41.435 L853 41.435 L854 41.435 L855 41.435 L856 41.435 L857 41.435 L858 41.435 L859 41.435 L860 42.828 L861 42.828 L862 42.828 L863 42.828 L864 42.828 L865 42.828 L866 42.828 L867 42.828 L868 42.828 L869 42.828 L870 42.828 L871 39.496 L872 39.496 L873 39.496 L874 39.496 L875 39.496 L876 39.496 L877 39.496 L878 39.496 L879 39.496 L880 39.496 L881 39.496 L882 39.496 L883 39.496 L883 79Z" fill="#0072b2" fill-opacity="0.18"/><polyline points="137,36.802 138,36.802 139,36.802 140,36.802 141,36.802 142,36.802 143,36.802 144,36.802 145,36.802 146,36.802 147,36.802 148,36.802 149,36.802 150,42.924 151,42.924 152,42.924 153,42.924 154,42.924 155,42.924 156,42.924 157,42.924 158,42.924 159,42.924 160,42.924 161,38.92 162,38.92 163,38.92 164,38.92 165,38.92 166,38.92 167,38.92 168,38.92 169,38.92 170,38.92 171,38.92 172,38.92 173,38.92 174,38.92 175,43.017 176,43.017 177,43.017 178,43.017 179,43.017 180,43.017 181,43.017 182,43.017 183,43.017 184,43.017 185,43.017 186,39.689 187,39.689 188,39.689 189,39.689 190,39.689 191,39.689 192,39.689 193,39.689 194,39.689 195,39.689 196,39.689 197,39.689 198,39.689 199,39.689 200,41.761 201,41.761 202,41.761 203,41.761 204,41.761 205,41.761 206,41.761 207,41.761 208,41.761 209,41.761 210,41.761 211,38.432 212,38.432 213,38.432 214,38.432 215,38.432 216,38.432 217,38.432 218,38.432 219,38.432 220,38.432 221,38.432 222,38.432 223,38.432 224,38.432 225,40.504 226,40.504 227,40.504 228,40.504 229,40.504 230,40.504 231,40.504 232,40.504 233,40.504 234,40.504 235,40.504 236,38.526 237,38.526 238,38.526 239,38.526 240,38.526 241,38.526 242,38.526 243,38.526 244,38.526 245,38.526 246,38.526 247,38.526 248,38.526 249,36.547 250,36.547 251,36.547 252,36.547 253,36.547 254,36.547 255,36.547 256,36.547 257,36.547 258,36.547 259,36.547 260,36.547 261,36.547 262,39.969 263,39.969 264,39.969 265,39.969 266,39.969 267,39.969 268,39.969 269,39.969 270,39.969 271,39.969 272,39.969 273,39.969 274,42.716 275,42.716 276,42.716 277,42.716 278,42.716 279,42.716 280,42.716 281,42.716 282,42.716 283,42.716 284,42.716 285,42.716 286,42.716 287,43.438 288,43.438 289,43.438 290,43.438 291,43.438 292,43.438 293,43.438 294,43.438 295,43.438 296,43.438 297,43.438 298,43.438 299,43.484 300,43.484 301,43.484 302,43.484 303,43.484 304,43.484 305,43.484 306,43.484 307,43.484 308,43.484 309,43.484 310,43.484 311,37.456 312,37.456 313,37.456 314,37.456 315,37.456 316,37.456 317,37.456 318,37.456 319,37.456 320,37.456 321,37.456 322,37.456 323,37.456 324,37.502 325,37.502 326,37.502 327,37.502 328,37.502 329,37.502 330,37.502 331,37.502 332,37.502 333,37.502 334,37.502 335,37.502 336,37.502 337,38.899 338,38.899 339,38.899 340,38.899 341,38.899 342,38.899 343,38.899 344,38.899 345,38.899 346,38.899 347,38.899 348,38.899 349,42.996 350,42.996 351,42.996 352,42.996 353,42.996 354,42.996 355,42.996 356,42.996 357,42.996 358,42.996 359,42.996 360,42.996 361,40.342 362,40.342 363,40.342 364,40.342 365,40.342 366,40.342 367,40.342 368,40.342 369,40.342 370,40.342 371,40.342 372,40.342 373,39.039 374,39.039 375,39.039 376,39.039 377,39.039 378,39.039 379,39.039 380,39.039 381,39.039 382,39.039 383,39.039 384,39.039 385,39.039 386,40.435 387,40.435 388,40.435 389,40.435 390,40.435 391,40.435 392,40.435 393,40.435 394,40.435 395,40.435 396,40.435 397,40.435 398,40.435 399,41.157 400,41.157 401,41.157 402,41.157 403,41.157 404,41.157 405,41.157 406,41.157 407,41.157 408,41.157 409,41.157 410,41.157 411,42.554 412,42.554 413,42.554 414,42.554 415,42.554 416,42.554 417,42.554 418,42.554 419,42.554 420,42.554 421,42.554 422,42.554 423,42.554 424,43.95 425,43.95 426,43.95 427,43.95 428,43.95 429,43.95 430,43.95 431,43.95 432,43.95 433,43.95 434,43.95 435,37.921 436,37.921 437,37.921 438,37.921 439,37.921 440,37.921 441,37.921 442,37.921 443,37.921 444,37.921 445,37.921 446,37.921 447,37.921 448,37.921 449,42.693 450,42.693 451,42.693 452,42.693 453,42.693 454,42.693 455,42.693 456,42.693 457,42.693 458,42.693 459,42.693 460,42.693 461,42.739 462,42.739 463,42.739 464,42.739 465,42.739 466,42.739 467,42.739 468,42.739 469,42.739 470,42.739 471,42.739 472,42.739 473,38.735 474,38.735 475,38.735 476,38.735 477,38.735 478,38.735 479,38.735 480,38.735 481,38.735 482,38.735 483,38.735 484,38.735 485,38.106 486,38.106 487,38.106 488,38.106 489,38.106 490,38.106 491,38.106 492,38.106 493,38.106 494,38.106 495,38.106 496,38.106 497,38.106 498,38.106 499,42.202 500,42.202 501,42.202 502,42.202 503,42.202 504,42.202 505,42.202 506,42.202 507,42.202 508,42.202 509,42.202 510,42.202 511,42.924 512,42.924 513,42.924 514,42.924 515,42.924 516,42.924 517,42.924 518,42.924 519,42.924 520,42.924 521,42.924 522,41.619 523,41.619 524,41.619 525,41.619 526,41.619 527,41.619 528,41.619 529,41.619 530,41.619 531,41.619 532,41.619 533,41.619 534,41.619 535,41.619 536,42.34 537,42.34 538,42.34 539,42.34 540,42.34 541,42.34 542,42.34 543,42.34 544,42.34 545,42.34 546,42.34 547,39.686 548,39.686 549,39.686 550,39.686 551,39.686 552,39.686 553,39.686 554,39.686 555,39.686 556,39.686 557,39.686 558,39.686 559,39.686 560,38.382 561,38.382 562,38.382 563,38.382 564,38.382 565,38.382 566,38.382 567,38.382 568,38.382 569,38.382 570,38.382 571,38.382 572,38.382 573,39.778 574,39.778 575,39.778 576,39.778 577,39.778 578,39.778 579,39.778 580,39.778 581,39.778 582,39.778 583,39.778 584,39.778 585,38.473 586,38.473 587,38.473 588,38.473 589,38.473 590,38.473 591,38.473 592,38.473 593,38.473 594,38.473 595,38.473 596,38.473 597,38.473 598,38.519 599,38.519 600,38.519 601,38.519 602,38.519 603,38.519 604,38.519 605,38.519 606,38.519 607,38.519 608,38.519 609,38.519 610,38.519 611,39.239 612,39.239 613,39.239 614,39.239 615,39.239 616,39.239 617,39.239 618,39.239 619,39.239 620,39.239 621,39.239 622,39.239 623,39.96 624,39.96 625,39.96 626,39.96 627,39.96 628,39.96 629,39.96 630,39.96 631,39.96 632,39.96 633,39.96 634,39.96 635,44.73 636,44.73 637,44.73 638,44.73 639,44.73 640,44.73 641,44.73 642,44.73 643,44.73 644,44.73 645,44.73 646,44.73 647,38.025 648,38.025 649,38.025 650,38.025 651,38.025 652,38.025 653,38.025 654,38.025 655,38.025 656,38.025 657,38.025 658,38.025 659,38.025 660,42.121 661,42.121 662,42.121 663,42.121 664,42.121 665,42.121 666,42.121 667,42.121 668,42.121 669,42.121 670,42.121 671,42.121 672,42.121 673,43.516 674,43.516 675,43.516 676,43.516 677,43.516 678,43.516 679,43.516 680,43.516 681,43.516 682,43.516 683,43.516 684,38.16 685,38.16 686,38.16 687,38.16 688,38.16 689,38.16 690,38.16 691,38.16 692,38.16 693,38.16 694,38.16 695,38.16 696,38.16 697,38.16 698,38.88 699,38.88 700,38.88 701,38.88 702,38.88 703,38.88 704,38.88 705,38.88 706,38.88 707,38.88 708,38.88 709,38.88 710,40.95 711,40.95 712,40.95 713,40.95 714,40.95 715,40.95 716,40.95 717,40.95 718,40.95 719,40.95 720,40.95 721,40.95 722,39.645 723,39.645 724,39.645 725,39.645 726,39.645 727,39.645 728,39.645 729,39.645 730,39.645 731,39.645 732,39.645 733,39.645 734,39.645 735,39.689 736,39.689 737,39.689 738,39.689 739,39.689 740,39.689 741,39.689 742,39.689 743,39.689 744,39.689 745,39.689 746,39.689 747,39.689 748,43.109 749,43.109 750,43.109 751,43.109 752,43.109 753,43.109 754,43.109 755,43.109 756,43.109 757,43.109 758,43.109 759,43.109 760,43.153 761,43.153 762,43.153 763,43.153 764,43.153 765,43.153 766,43.153 767,43.153 768,43.153 769,43.153 770,43.153 771,39.147 772,39.147 773,39.147 774,39.147 775,39.147 776,39.147 777,39.147 778,39.147 779,39.147 780,39.147 781,39.147 782,39.147 783,39.147 784,39.147 785,42.566 786,42.566 787,42.566 788,42.566 789,42.566 790,42.566 791,42.566 792,42.566 793,42.566 794,42.566 795,42.566 796,40.585 797,40.585 798,40.585 799,40.585 800,40.585 801,40.585 802,40.585 803,40.585 804,40.585 805,40.585 806,40.585 807,40.585 808,40.585 809,39.279 810,39.279 811,39.279 812,39.279 813,39.279 814,39.279 815,39.279 816,39.279 817,39.279 818,39.279 819,39.279 820,39.279 821,38.648 822,38.648 823,38.648 824,38.648 825,38.648 826,38.648 827,38.648 828,38.648 829,38.648 830,38.648 831,38.648 832,38.648 833,38.648 834,38.648 835,42.066 836,42.066 837,42.066 838,42.066 839,42.066 840,42.066 841,42.066 842,42.066 843,42.066 844,42.066 845,42.066 846,41.435 847,41.435 848,41.435 849,41.435 850,41.435 851,41.435 852,41.435 853,41.435 854,41.435 855,41.435 856,41.435 857,41.435 858,41.435 859,41.435 860,42.828 861,42.828 862,42.828 863,42.828 864,42.828 865,42.828 866,42.828 867,42.828 868,42.828 869,42.828 870,42.828 871,39.496 872,39.496 873,39.496 874,39.496 875,39.496 876,39.496 877,39.496 878,39.496 879,39.496 880,39.496 881,39.496 882,39.496 883,39.496" fill="none" stroke="#0072b2" stroke-width="2" stroke-linejoin="round"/><line x1="137" y1="36.547" x2="884" y2="36.547" stroke="#c8ccd1" stroke-width="1"/><text x="133" y="40.047" fill="#6b7280" font-size="10" text-anchor="end">62.9</text><text x="133" y="79" fill="#6b7280" font-size="10" text-anchor="end">0</text></g><text x="88" y="101.85" fill="#6b7280" font-size="11" text-anchor="end">reference</text><g clip-path="url(#karyon-clip-1)"><text x="143.225" y="101.137" fill="#e08214" font-size="8.964" text-anchor="middle" font-weight="bold">G</text><text x="155.675" y="101.137" fill="#e08214" font-size="8.964" text-anchor="middle" font-weight="bold">G</text><text x="168.125" y="101.137" fill="#e31a1c" font-size="8.964" text-anchor="middle" font-weight="bold">T</text><text x="180.575" y="101.137" fill="#1f78b4" font-size="8.964" text-anchor="middle" font-weight="bold">C</text><text x="193.025" y="101.137" fill="#1f78b4" font-size="8.964" text-anchor="middle" font-weight="bold">C</text><text x="205.475" y="101.137" fill="#1f78b4" font-size="8.964" text-anchor="middle" font-weight="bold">C</text><text x="217.925" y="101.137" fill="#1f78b4" font-size="8.964" text-anchor="middle" font-weight="bold">C</text><text x="230.375" y="101.137" fill="#33a02c" font-size="8.964" text-anchor="middle" font-weight="bold">A</text><text x="242.825" y="101.137" fill="#1f78b4" font-size="8.964" text-anchor="middle" font-weight="bold">C</text><text x="255.275" y="101.137" fill="#1f78b4" font-size="8.964" text-anchor="middle" font-weight="bold">C</text><text x="267.725" y="101.137" fill="#33a02c" font-size="8.964" text-anchor="middle" font-weight="bold">A</text><text x="280.175" y="101.137" fill="#e08214" font-size="8.964" text-anchor="middle" font-weight="bold">G</text><text x="292.625" y="101.137" fill="#33a02c" font-size="8.964" text-anchor="middle" font-weight="bold">A</text><text x="305.075" y="101.137" fill="#33a02c" font-size="8.964" text-anchor="middle" font-weight="bold">A</text><text x="317.525" y="101.137" fill="#e08214" font-size="8.964" text-anchor="middle" font-weight="bold">G</text><text x="329.975" y="101.137" fill="#1f78b4" font-size="8.964" text-anchor="middle" font-weight="bold">C</text><text x="342.425" y="101.137" fill="#e08214" font-size="8.964" text-anchor="middle" font-weight="bold">G</text><text x="354.875" y="101.137" fill="#e31a1c" font-size="8.964" text-anchor="middle" font-weight="bold">T</text><text x="367.325" y="101.137" fill="#1f78b4" font-size="8.964" text-anchor="middle" font-weight="bold">C</text><text x="379.775" y="101.137" fill="#33a02c" font-size="8.964" text-anchor="middle" font-weight="bold">A</text><text x="392.225" y="101.137" fill="#1f78b4" font-size="8.964" text-anchor="middle" font-weight="bold">C</text><text x="404.675" y="101.137" fill="#1f78b4" font-size="8.964" text-anchor="middle" font-weight="bold">C</text><text x="417.125" y="101.137" fill="#1f78b4" font-size="8.964" text-anchor="middle" font-weight="bold">C</text><text x="429.575" y="101.137" fill="#1f78b4" font-size="8.964" text-anchor="middle" font-weight="bold">C</text><text x="442.025" y="101.137" fill="#33a02c" font-size="8.964" text-anchor="middle" font-weight="bold">A</text><text x="454.475" y="101.137" fill="#e08214" font-size="8.964" text-anchor="middle" font-weight="bold">G</text><text x="466.925" y="101.137" fill="#e08214" font-size="8.964" text-anchor="middle" font-weight="bold">G</text><text x="479.375" y="101.137" fill="#e08214" font-size="8.964" text-anchor="middle" font-weight="bold">G</text><text x="491.825" y="101.137" fill="#33a02c" font-size="8.964" text-anchor="middle" font-weight="bold">A</text><text x="504.275" y="101.137" fill="#e08214" font-size="8.964" text-anchor="middle" font-weight="bold">G</text><text x="516.725" y="101.137" fill="#e31a1c" font-size="8.964" text-anchor="middle" font-weight="bold">T</text><text x="529.175" y="101.137" fill="#e31a1c" font-size="8.964" text-anchor="middle" font-weight="bold">T</text><text x="541.625" y="101.137" fill="#e08214" font-size="8.964" text-anchor="middle" font-weight="bold">G</text><text x="554.075" y="101.137" fill="#1f78b4" font-size="8.964" text-anchor="middle" font-weight="bold">C</text><text x="566.525" y="101.137" fill="#e31a1c" font-size="8.964" text-anchor="middle" font-weight="bold">T</text><text x="578.975" y="101.137" fill="#1f78b4" font-size="8.964" text-anchor="middle" font-weight="bold">C</text><text x="591.425" y="101.137" fill="#1f78b4" font-size="8.964" text-anchor="middle" font-weight="bold">C</text><text x="603.875" y="101.137" fill="#1f78b4" font-size="8.964" text-anchor="middle" font-weight="bold">C</text><text x="616.325" y="101.137" fill="#33a02c" font-size="8.964" text-anchor="middle" font-weight="bold">A</text><text x="628.775" y="101.137" fill="#33a02c" font-size="8.964" text-anchor="middle" font-weight="bold">A</text><text x="641.225" y="101.137" fill="#e08214" font-size="8.964" text-anchor="middle" font-weight="bold">G</text><text x="653.675" y="101.137" fill="#e08214" font-size="8.964" text-anchor="middle" font-weight="bold">G</text><text x="666.125" y="101.137" fill="#33a02c" font-size="8.964" text-anchor="middle" font-weight="bold">A</text><text x="678.575" y="101.137" fill="#e08214" font-size="8.964" text-anchor="middle" font-weight="bold">G</text><text x="691.025" y="101.137" fill="#e31a1c" font-size="8.964" text-anchor="middle" font-weight="bold">T</text><text x="703.475" y="101.137" fill="#1f78b4" font-size="8.964" text-anchor="middle" font-weight="bold">C</text><text x="715.925" y="101.137" fill="#33a02c" font-size="8.964" text-anchor="middle" font-weight="bold">A</text><text x="728.375" y="101.137" fill="#33a02c" font-size="8.964" text-anchor="middle" font-weight="bold">A</text><text x="740.825" y="101.137" fill="#33a02c" font-size="8.964" text-anchor="middle" font-weight="bold">A</text><text x="753.275" y="101.137" fill="#33a02c" font-size="8.964" text-anchor="middle" font-weight="bold">A</text><text x="765.725" y="101.137" fill="#33a02c" font-size="8.964" text-anchor="middle" font-weight="bold">A</text><text x="778.175" y="101.137" fill="#33a02c" font-size="8.964" text-anchor="middle" font-weight="bold">A</text><text x="790.625" y="101.137" fill="#e08214" font-size="8.964" text-anchor="middle" font-weight="bold">G</text><text x="803.075" y="101.137" fill="#33a02c" font-size="8.964" text-anchor="middle" font-weight="bold">A</text><text x="815.525" y="101.137" fill="#1f78b4" font-size="8.964" text-anchor="middle" font-weight="bold">C</text><text x="827.975" y="101.137" fill="#e31a1c" font-size="8.964" text-anchor="middle" font-weight="bold">T</text><text x="840.425" y="101.137" fill="#1f78b4" font-size="8.964" text-anchor="middle" font-weight="bold">C</text><text x="852.875" y="101.137" fill="#1f78b4" font-size="8.964" text-anchor="middle" font-weight="bold">C</text><text x="865.325" y="101.137" fill="#1f78b4" font-size="8.964" text-anchor="middle" font-weight="bold">C</text><text x="877.775" y="101.137" fill="#e31a1c" font-size="8.964" text-anchor="middle" font-weight="bold">T</text></g><text x="88" y="140.85" fill="#6b7280" font-size="11" text-anchor="end">variants</text><g clip-path="url(#karyon-clip-2)"><line x1="137" y1="157" x2="884" y2="157" stroke="#c8ccd1" stroke-width="1"/><line x1="137" y1="136" x2="884" y2="136" stroke="#c8ccd1" stroke-width="1"/><text x="133" y="139.5" fill="#6b7280" font-size="10" text-anchor="end">1</text><text x="133" y="157" fill="#6b7280" font-size="10" text-anchor="end">0</text><line x1="267.725" y1="157" x2="267.725" y2="136" stroke="#0072b2" stroke-width="1.4"/><circle cx="267.725" cy="136" r="5.5" fill="#ffffff"/><circle cx="267.725" cy="136" r="4" fill="#0072b2"/><line x1="790.625" y1="157" x2="790.625" y2="143.56" stroke="#0072b2" stroke-width="1.4"/><circle cx="790.625" cy="143.56" r="5.5" fill="#ffffff"/><circle cx="790.625" cy="143.56" r="4" fill="#0072b2"/><circle cx="834" cy="123.5" r="2" fill="#0072b2"/><text x="840" y="127" fill="#6b7280" font-size="10" text-anchor="start">missense</text></g><g clip-path="url(#karyon-clip-3)"><line x1="137" y1="167.5" x2="884" y2="167.5" stroke="#c8ccd1" stroke-width="1"/><line x1="249.05" y1="167.5" x2="249.05" y2="172.5" stroke="#c8ccd1" stroke-width="1"/><text x="249.05" y="183.5" fill="#6b7280" font-size="11" text-anchor="middle">761.41 kb</text><line x1="373.55" y1="167.5" x2="373.55" y2="172.5" stroke="#c8ccd1" stroke-width="1"/><text x="373.55" y="183.5" fill="#6b7280" font-size="11" text-anchor="middle">761.42 kb</text><line x1="498.05" y1="167.5" x2="498.05" y2="172.5" stroke="#c8ccd1" stroke-width="1"/><text x="498.05" y="183.5" fill="#6b7280" font-size="11" text-anchor="middle">761.43 kb</text><line x1="622.55" y1="167.5" x2="622.55" y2="172.5" stroke="#c8ccd1" stroke-width="1"/><text x="622.55" y="183.5" fill="#6b7280" font-size="11" text-anchor="middle">761.44 kb</text><line x1="747.05" y1="167.5" x2="747.05" y2="172.5" stroke="#c8ccd1" stroke-width="1"/><text x="747.05" y="183.5" fill="#6b7280" font-size="11" text-anchor="middle">761.45 kb</text><line x1="871.55" y1="167.5" x2="871.55" y2="172.5" stroke="#c8ccd1" stroke-width="1"/><text x="884" y="183.5" fill="#6b7280" font-size="11" text-anchor="end">761.46 kb</text></g></svg>