<svg xmlns="http://www.w3.org/2000/svg" width="880" height="216" viewBox="0 0 880 216" font-family="Liberation Sans, Arial, Helvetica, sans-serif" role="img" aria-labelledby="karyon-title karyon-desc"><title id="karyon-title">Transcription units: one arrow, one molecule, one hairpin, NC_000962.3:4348701-4360100</title><desc id="karyon-desc">A karyon figure over NC_000962.3:4348701-4360100, with 3 tracks, drawn top to bottom: transcripts, genes.</desc><defs><clipPath id="karyon-clip-0"><rect x="85.344" y="42" width="776.656" height="62"/></clipPath><clipPath id="karyon-clip-1"><rect x="85.344" y="116" width="776.656" height="48"/></clipPath><clipPath id="karyon-clip-2"><rect x="85.344" y="176" width="776.656" height="26"/></clipPath></defs><rect x="0" y="0" width="880" height="216" fill="#ffffff"/><text x="16" y="30" fill="#1b1f23" font-size="16" text-anchor="start" font-weight="bold">Transcription units: one arrow, one molecule, one hairpin</text><text x="75.344" y="77.2" fill="#1b1f23" font-size="12" text-anchor="end">transcripts</text><g clip-path="url(#karyon-clip-0)"><g><title>esxB-esxA, 4,352,273 to 4,352,945, forward, no leader, intrinsic terminator</title><line x1="328.73" y1="62.16" x2="374.58" y2="62.16" stroke="#0072b2" stroke-width="2.6"/><path d="M 328.73 62.16 L 328.73 49.28 L 344.13 49.28" fill="none" stroke="#0072b2" stroke-width="1.6"/><polygon points="348.63,49.28 343.23,46.49 343.23,52.07" fill="#0072b2"/><line x1="374.58" y1="62.16" x2="374.58" y2="57.288" stroke="#0072b2" stroke-width="1.6"/><circle cx="374.58" cy="53.76" r="5.128" fill="#0072b2"/><circle cx="374.58" cy="53.76" r="3.528" fill="#ffffff"/></g><g><title>espI, 4,352,951 to 4,355,120, forward, 58 base leader, intrinsic terminator</title><line x1="374.921" y1="96.16" x2="378.872" y2="96.16" stroke="#8cc0dc" stroke-width="2.6"/><line x1="378.872" y1="96.16" x2="522.758" y2="96.16" stroke="#0072b2" stroke-width="2.6"/><line x1="378.872" y1="92.16" x2="378.872" y2="100.16" stroke="#0072b2" stroke-width="1.2"/><path d="M 374.921 96.16 L 374.921 83.28 L 390.321 83.28" fill="none" stroke="#0072b2" stroke-width="1.6"/><polygon points="394.821,83.28 389.421,80.49 389.421,86.07" fill="#0072b2"/><line x1="522.758" y1="96.16" x2="522.758" y2="91.288" stroke="#0072b2" stroke-width="1.6"/><circle cx="522.758" cy="87.76" r="5.128" fill="#0072b2"/><circle cx="522.758" cy="87.76" r="3.528" fill="#ffffff"/><text x="459.539" y="92.16" fill="#4b5563" font-size="12" text-anchor="middle">espI</text></g><g><title>espK, 4,357,592 to 4,359,850, reverse, 69 base leader, Rho-dependent terminator</title><line x1="845.002" y1="62.16" x2="840.301" y2="62.16" stroke="#ecb78c" stroke-width="2.6"/><line x1="840.301" y1="62.16" x2="691.102" y2="62.16" stroke="#d55e00" stroke-width="2.6"/><line x1="840.301" y1="58.16" x2="840.301" y2="66.16" stroke="#d55e00" stroke-width="1.2"/><path d="M 845.002 62.16 L 845.002 49.28 L 829.602 49.28" fill="none" stroke="#d55e00" stroke-width="1.6"/><polygon points="825.102,49.28 830.502,46.49 830.502,52.07" fill="#d55e00"/><line x1="691.102" y1="57.12" x2="691.102" y2="67.2" stroke="#d55e00" stroke-width="2"/><line x1="694.102" y1="57.12" x2="688.102" y2="57.12" stroke="#d55e00" stroke-width="1.2"/><text x="757.352" y="58.16" fill="#4b5563" font-size="12" text-anchor="middle">espK</text></g></g><line x1="16" y1="110.5" x2="862" y2="110.5" stroke="#e9ecef" stroke-width="0.8"/><text x="75.344" y="144.2" fill="#1b1f23" font-size="12" text-anchor="end">genes</text><g clip-path="url(#karyon-clip-1)"><g><title>eccCb1, 4,348,826 to 4,350,602, forward</title><polygon points="94.26,116.4 206.523,116.4 214.523,123 206.523,129.6 94.26,129.6" fill="#9ec9e2" stroke="#0072b2" stroke-width="0.8" stroke-linejoin="round"/><text x="154.391" y="127.2" fill="#1b1f23" font-size="12" text-anchor="middle">eccCb1</text></g><g><title>PE35, 4,350,744 to 4,351,044, forward</title><polygon points="224.929,116.4 237.458,116.4 244.635,123 237.458,129.6 224.929,129.6" fill="#9ec9e2" stroke="#0072b2" stroke-width="0.8" stroke-linejoin="round"/><text x="248.035" y="127.2" fill="#1b1f23" font-size="12" text-anchor="start">PE35</text></g><g><title>PPE68, 4,351,074 to 4,352,181, forward</title><polygon points="247.411,133.4 314.097,133.4 322.097,140 314.097,146.6 247.411,146.6" fill="#9ec9e2" stroke="#0072b2" stroke-width="0.8" stroke-linejoin="round"/><text x="284.754" y="144.2" fill="#1b1f23" font-size="12" text-anchor="middle">PPE68</text></g><g><title>esxB, 4,352,273 to 4,352,576, forward</title><polygon points="329.096,116.4 341.758,116.4 349.007,123 341.758,129.6 329.096,129.6" fill="#9ec9e2" stroke="#0072b2" stroke-width="0.8" stroke-linejoin="round"/><text x="352.407" y="127.2" fill="#1b1f23" font-size="12" text-anchor="start">esxB</text></g><g><title>esxA, 4,352,608 to 4,352,896, forward</title><polygon points="351.919,133.4 363.917,133.4 370.808,140 363.917,146.6 351.919,146.6" fill="#9ec9e2" stroke="#0072b2" stroke-width="0.8" stroke-linejoin="round"/><text x="374.208" y="144.2" fill="#1b1f23" font-size="12" text-anchor="start">esxA</text></g><g><title>espI, 4,353,009 to 4,355,010, forward</title><polygon points="379.238,150.4 506.83,150.4 514.83,157 506.83,163.6 379.238,163.6" fill="#9ec9e2" stroke="#0072b2" stroke-width="0.8" stroke-linejoin="round"/><text x="447.034" y="161.2" fill="#1b1f23" font-size="12" text-anchor="middle">espI</text></g><g><title>eccD1, 4,355,006 to 4,356,542, forward</title><polygon points="515.289,116.4 611.202,116.4 619.202,123 611.202,129.6 515.289,129.6" fill="#9ec9e2" stroke="#0072b2" stroke-width="0.8" stroke-linejoin="round"/><text x="567.245" y="127.2" fill="#1b1f23" font-size="12" text-anchor="middle">eccD1</text></g><g><title>espJ, 4,356,692 to 4,357,535, forward</title><polygon points="630.153,116.4 678.852,116.4 686.852,123 678.852,129.6 630.153,129.6" fill="#9ec9e2" stroke="#0072b2" stroke-width="0.8" stroke-linejoin="round"/><text x="658.503" y="127.2" fill="#1b1f23" font-size="12" text-anchor="middle">espJ</text></g><g><title>espK, 4,357,592 to 4,359,782, reverse</title><polygon points="839.935,133.4 699.468,133.4 691.468,140 699.468,146.6 839.935,146.6" fill="#efc29e" stroke="#d55e00" stroke-width="0.8" stroke-linejoin="round"/><text x="765.701" y="144.2" fill="#1b1f23" font-size="12" text-anchor="middle">espK</text></g></g><g clip-path="url(#karyon-clip-2)"><line x1="85.344" y1="176.5" x2="862" y2="176.5" stroke="#1b1f23" stroke-width="1.2"/><line x1="173.842" y1="176.5" x2="173.842" y2="181.5" stroke="#1b1f23" stroke-width="1.2"/><text x="173.842" y="193.5" fill="#4b5563" font-size="12" text-anchor="middle">4.350 Mb</text><line x1="310.097" y1="176.5" x2="310.097" y2="181.5" stroke="#1b1f23" stroke-width="1.2"/><text x="310.097" y="193.5" fill="#4b5563" font-size="12" text-anchor="middle">4.352 Mb</text><line x1="446.353" y1="176.5" x2="446.353" y2="181.5" stroke="#1b1f23" stroke-width="1.2"/><text x="446.353" y="193.5" fill="#4b5563" font-size="12" text-anchor="middle">4.354 Mb</text><line x1="582.608" y1="176.5" x2="582.608" y2="181.5" stroke="#1b1f23" stroke-width="1.2"/><text x="582.608" y="193.5" fill="#4b5563" font-size="12" text-anchor="middle">4.356 Mb</text><line x1="718.864" y1="176.5" x2="718.864" y2="181.5" stroke="#1b1f23" stroke-width="1.2"/><text x="718.864" y="193.5" fill="#4b5563" font-size="12" text-anchor="middle">4.358 Mb</text><line x1="855.119" y1="176.5" x2="855.119" y2="181.5" stroke="#1b1f23" stroke-width="1.2"/><text x="862" y="193.5" fill="#4b5563" font-size="12" text-anchor="end">4.360 Mb</text></g></svg>