<svg xmlns="http://www.w3.org/2000/svg" width="760" height="234.5" viewBox="0 0 760 234.5" font-family="Inter, Liberation Sans, Arial, Helvetica, sans-serif" role="img" aria-labelledby="karyon-title karyon-desc"><title id="karyon-title">K. pneumoniae: core and accessory genome trees over one collection</title><desc id="karyon-desc">A karyon figure, with one track: 8 isolates.</desc><defs><clipPath id="karyon-clip-0"><rect x="85.704" y="43" width="656.296" height="177.5"/></clipPath></defs><rect x="0" y="0" width="760" height="234.5" fill="#ffffff"/><text x="16" y="31" fill="#1a1233" font-size="17" text-anchor="start" font-weight="bold">K. pneumoniae: core and accessory genome trees over one collection</text><text x="75.704" y="135.6" fill="#5b5480" font-size="11" text-anchor="end" font-weight="600" letter-spacing="0.03em">8 isolates</text><g clip-path="url(#karyon-clip-0)"><rect x="85.704" y="60.5" width="196.889" height="160" rx="3.5" fill="#fbfafd"/><rect x="545.111" y="60.5" width="196.889" height="160" rx="3.5" fill="#fbfafd"/><g><title>ERR5001, straight; left ward ICU; right ward ICU</title><path d="M354.593 70.5C396.074 70.5 431.63 70.5 473.111 70.5" fill="none" stroke="#1634c2" stroke-width="1"/><text x="286.593" y="73.825" fill="#5b5480" font-size="9.5" text-anchor="start">ERR5001</text><text x="541.111" y="73.825" fill="#5b5480" font-size="9.5" text-anchor="end">ERR5001</text><circle cx="354.593" cy="70.5" r="2.6" fill="#ffffff"/><circle cx="354.593" cy="70.5" r="1.8" fill="#1634c2"/><circle cx="473.111" cy="70.5" r="2.6" fill="#ffffff"/><circle cx="473.111" cy="70.5" r="1.8" fill="#1634c2"/></g><g><title>ERR5002, crossing; left ward ICU; right ward ICU</title><path d="M354.593 90.5C396.074 90.5 431.63 150.5 473.111 150.5" fill="none" stroke="#1634c2" stroke-width="1.7" stroke-dasharray="6 4"/><text x="286.593" y="93.825" fill="#5b5480" font-size="9.5" text-anchor="start">ERR5002</text><text x="541.111" y="153.825" fill="#5b5480" font-size="9.5" text-anchor="end">ERR5002</text><circle cx="354.593" cy="90.5" r="2.6" fill="#ffffff"/><circle cx="354.593" cy="90.5" r="1.8" fill="#1634c2"/><circle cx="473.111" cy="150.5" r="2.6" fill="#ffffff"/><circle cx="473.111" cy="150.5" r="1.8" fill="#1634c2"/></g><g><title>ERR5003, crossing; left ward Surgery; right ward Surgery</title><path d="M354.593 110.5C396.074 110.5 431.63 110.5 473.111 110.5" fill="none" stroke="#e63f9f" stroke-width="1.7" stroke-dasharray="6 4"/><text x="286.593" y="113.825" fill="#5b5480" font-size="9.5" text-anchor="start">ERR5003</text><text x="541.111" y="113.825" fill="#5b5480" font-size="9.5" text-anchor="end">ERR5003</text><circle cx="354.593" cy="110.5" r="2.6" fill="#ffffff"/><circle cx="354.593" cy="110.5" r="1.8" fill="#e63f9f"/><circle cx="473.111" cy="110.5" r="2.6" fill="#ffffff"/><circle cx="473.111" cy="110.5" r="1.8" fill="#e63f9f"/></g><g><title>ERR5004, crossing; left ward Surgery; right ward Surgery</title><path d="M354.593 130.5C396.074 130.5 431.63 130.5 473.111 130.5" fill="none" stroke="#e63f9f" stroke-width="1.7" stroke-dasharray="6 4"/><text x="286.593" y="133.825" fill="#5b5480" font-size="9.5" text-anchor="start">ERR5004</text><text x="541.111" y="133.825" fill="#5b5480" font-size="9.5" text-anchor="end">ERR5004</text><circle cx="354.593" cy="130.5" r="2.6" fill="#ffffff"/><circle cx="354.593" cy="130.5" r="1.8" fill="#e63f9f"/><circle cx="473.111" cy="130.5" r="2.6" fill="#ffffff"/><circle cx="473.111" cy="130.5" r="1.8" fill="#e63f9f"/></g><g><title>ERR5006, crossing; left ward Medicine; right ward Medicine</title><path d="M354.593 150.5C396.074 150.5 431.63 90.5 473.111 90.5" fill="none" stroke="#108169" stroke-width="1.7" stroke-dasharray="6 4"/><text x="286.593" y="153.825" fill="#5b5480" font-size="9.5" text-anchor="start">ERR5006</text><text x="541.111" y="93.825" fill="#5b5480" font-size="9.5" text-anchor="end">ERR5006</text><circle cx="354.593" cy="150.5" r="2.6" fill="#ffffff"/><circle cx="354.593" cy="150.5" r="1.8" fill="#108169"/><circle cx="473.111" cy="90.5" r="2.6" fill="#ffffff"/><circle cx="473.111" cy="90.5" r="1.8" fill="#108169"/></g><g><title>ERR5005, straight; left ward Medicine; right ward Medicine</title><path d="M354.593 170.5C396.074 170.5 431.63 170.5 473.111 170.5" fill="none" stroke="#108169" stroke-width="1"/><text x="286.593" y="173.825" fill="#5b5480" font-size="9.5" text-anchor="start">ERR5005</text><text x="541.111" y="173.825" fill="#5b5480" font-size="9.5" text-anchor="end">ERR5005</text><circle cx="354.593" cy="170.5" r="2.6" fill="#ffffff"/><circle cx="354.593" cy="170.5" r="1.8" fill="#108169"/><circle cx="473.111" cy="170.5" r="2.6" fill="#ffffff"/><circle cx="473.111" cy="170.5" r="1.8" fill="#108169"/></g><g><title>ERR5007, straight; left ward Community; right ward Community</title><path d="M354.593 190.5C396.074 190.5 431.63 190.5 473.111 190.5" fill="none" stroke="#b78a2c" stroke-width="1"/><text x="286.593" y="193.825" fill="#5b5480" font-size="9.5" text-anchor="start">ERR5007</text><text x="541.111" y="193.825" fill="#5b5480" font-size="9.5" text-anchor="end">ERR5007</text><circle cx="354.593" cy="190.5" r="2.6" fill="#ffffff"/><circle cx="354.593" cy="190.5" r="1.8" fill="#b78a2c"/><circle cx="473.111" cy="190.5" r="2.6" fill="#ffffff"/><circle cx="473.111" cy="190.5" r="1.8" fill="#b78a2c"/></g><g><title>ERR5008, straight; left ward Community; right ward Community</title><path d="M354.593 210.5C396.074 210.5 431.63 210.5 473.111 210.5" fill="none" stroke="#b78a2c" stroke-width="1"/><text x="286.593" y="213.825" fill="#5b5480" font-size="9.5" text-anchor="start">ERR5008</text><text x="541.111" y="213.825" fill="#5b5480" font-size="9.5" text-anchor="end">ERR5008</text><circle cx="354.593" cy="210.5" r="2.6" fill="#ffffff"/><circle cx="354.593" cy="210.5" r="1.8" fill="#b78a2c"/><circle cx="473.111" cy="210.5" r="2.6" fill="#ffffff"/><circle cx="473.111" cy="210.5" r="1.8" fill="#b78a2c"/></g><line x1="85.704" y1="100.5" x2="201.521" y2="100.5" stroke="#1a1233" stroke-width="1.2"/><line x1="201.521" y1="80.5" x2="259.429" y2="80.5" stroke="#1a1233" stroke-width="1.2"/><line x1="259.429" y1="70.5" x2="282.593" y2="70.5" stroke="#1a1233" stroke-width="1.2"/><line x1="259.429" y1="90.5" x2="282.593" y2="90.5" stroke="#1a1233" stroke-width="1.2"/><line x1="201.521" y1="120.5" x2="253.639" y2="120.5" stroke="#1a1233" stroke-width="1.2"/><line x1="253.639" y1="110.5" x2="271.011" y2="110.5" stroke="#1a1233" stroke-width="1.2"/><line x1="253.639" y1="130.5" x2="282.593" y2="130.5" stroke="#1a1233" stroke-width="1.2"/><line x1="85.704" y1="180.5" x2="189.939" y2="180.5" stroke="#1a1233" stroke-width="1.2"/><line x1="189.939" y1="160.5" x2="253.639" y2="160.5" stroke="#1a1233" stroke-width="1.2"/><line x1="253.639" y1="170.5" x2="276.802" y2="170.5" stroke="#1a1233" stroke-width="1.2"/><line x1="253.639" y1="150.5" x2="271.011" y2="150.5" stroke="#1a1233" stroke-width="1.2"/><line x1="189.939" y1="200.5" x2="236.266" y2="200.5" stroke="#1a1233" stroke-width="1.2"/><line x1="236.266" y1="190.5" x2="265.22" y2="190.5" stroke="#1a1233" stroke-width="1.2"/><line x1="236.266" y1="210.5" x2="259.429" y2="210.5" stroke="#1a1233" stroke-width="1.2"/><line x1="85.704" y1="100.5" x2="85.704" y2="180.5" stroke="#1a1233" stroke-width="1.2"/><line x1="201.521" y1="80.5" x2="201.521" y2="120.5" stroke="#1a1233" stroke-width="1.2"/><line x1="259.429" y1="70.5" x2="259.429" y2="90.5" stroke="#1a1233" stroke-width="1.2"/><line x1="253.639" y1="110.5" x2="253.639" y2="130.5" stroke="#1a1233" stroke-width="1.2"/><line x1="189.939" y1="160.5" x2="189.939" y2="200.5" stroke="#1a1233" stroke-width="1.2"/><line x1="253.639" y1="150.5" x2="253.639" y2="170.5" stroke="#1a1233" stroke-width="1.2"/><line x1="236.266" y1="190.5" x2="236.266" y2="210.5" stroke="#1a1233" stroke-width="1.2"/><line x1="742" y1="100.5" x2="660.641" y2="100.5" stroke="#1a1233" stroke-width="1.2"/><line x1="660.641" y1="80.5" x2="595.554" y2="80.5" stroke="#1a1233" stroke-width="1.2"/><line x1="595.554" y1="70.5" x2="546.738" y2="70.5" stroke="#1a1233" stroke-width="1.2"/><line x1="595.554" y1="90.5" x2="549.993" y2="90.5" stroke="#1a1233" stroke-width="1.2"/><line x1="660.641" y1="120.5" x2="598.808" y2="120.5" stroke="#1a1233" stroke-width="1.2"/><line x1="598.808" y1="110.5" x2="548.366" y2="110.5" stroke="#1a1233" stroke-width="1.2"/><line x1="598.808" y1="130.5" x2="551.62" y2="130.5" stroke="#1a1233" stroke-width="1.2"/><line x1="742" y1="180.5" x2="663.895" y2="180.5" stroke="#1a1233" stroke-width="1.2"/><line x1="663.895" y1="160.5" x2="597.181" y2="160.5" stroke="#1a1233" stroke-width="1.2"/><line x1="597.181" y1="170.5" x2="548.366" y2="170.5" stroke="#1a1233" stroke-width="1.2"/><line x1="597.181" y1="150.5" x2="545.111" y2="150.5" stroke="#1a1233" stroke-width="1.2"/><line x1="663.895" y1="200.5" x2="600.435" y2="200.5" stroke="#1a1233" stroke-width="1.2"/><line x1="600.435" y1="190.5" x2="554.874" y2="190.5" stroke="#1a1233" stroke-width="1.2"/><line x1="600.435" y1="210.5" x2="551.62" y2="210.5" stroke="#1a1233" stroke-width="1.2"/><line x1="742" y1="100.5" x2="742" y2="180.5" stroke="#1a1233" stroke-width="1.2"/><line x1="660.641" y1="80.5" x2="660.641" y2="120.5" stroke="#1a1233" stroke-width="1.2"/><line x1="595.554" y1="70.5" x2="595.554" y2="90.5" stroke="#1a1233" stroke-width="1.2"/><line x1="598.808" y1="110.5" x2="598.808" y2="130.5" stroke="#1a1233" stroke-width="1.2"/><line x1="663.895" y1="160.5" x2="663.895" y2="200.5" stroke="#1a1233" stroke-width="1.2"/><line x1="597.181" y1="150.5" x2="597.181" y2="170.5" stroke="#1a1233" stroke-width="1.2"/><line x1="600.435" y1="190.5" x2="600.435" y2="210.5" stroke="#1a1233" stroke-width="1.2"/><text x="85.704" y="52.5" fill="#1a1233" font-size="9.5" text-anchor="start" font-weight="bold">core genome</text><text x="742" y="52.5" fill="#1a1233" font-size="9.5" text-anchor="end" font-weight="bold">accessory genome</text><rect x="355.032" y="43" width="117.641" height="13.5" rx="6.75" fill="#fbfafd"/><text x="413.852" y="52.5" fill="#5b5480" font-size="8.5" text-anchor="middle" font-weight="bold">7 → 5 crossings · 8 linked</text></g></svg>