<svg xmlns="http://www.w3.org/2000/svg" width="880" height="171" viewBox="0 0 880 171" font-family="Liberation Sans, Arial, Helvetica, sans-serif" role="img" aria-labelledby="karyon-title karyon-desc"><title id="karyon-title">A coding sequence read as protein: rpoB codons 439 to 465, NC_000962.3:761121-761200</title><desc id="karyon-desc">A karyon figure over NC_000962.3:761121-761200, with 3 tracks, drawn top to bottom: variants, rpoB.</desc><defs><clipPath id="karyon-clip-0"><rect x="72.012" y="44" width="789.988" height="34"/></clipPath><clipPath id="karyon-clip-1"><rect x="72.012" y="90" width="789.988" height="29"/></clipPath><clipPath id="karyon-clip-2"><rect x="72.012" y="131" width="789.988" height="26"/></clipPath></defs><rect x="0" y="0" width="880" height="171" fill="#ffffff"/><text x="16" y="32" fill="#1b1f23" font-size="18" text-anchor="start" font-weight="bold">A coding sequence read as protein: rpoB codons 439 to 465</text><text x="62.012" y="65.2" fill="#4b5563" font-size="12" text-anchor="end">variants</text><g clip-path="url(#karyon-clip-0)"><line x1="72.012" y1="77.5" x2="862" y2="77.5" stroke="#d7dce2" stroke-width="0.8"/><g><title>variant, 761,155, S450L</title><line x1="412.694" y1="78" x2="412.694" y2="65" stroke="#0072b2" stroke-width="1.2"/><circle cx="412.694" cy="65" r="4.8" fill="#ffffff"/><circle cx="412.694" cy="65" r="4" fill="#0072b2"/></g><g><title>variant, 761,140, H445Y</title><line x1="264.572" y1="78" x2="264.572" y2="65" stroke="#d55e00" stroke-width="1.2"/><rect x="259.772" y="60.2" width="9.6" height="9.6" fill="#ffffff"/><rect x="260.572" y="61" width="8" height="8" fill="#d55e00"/></g><g><title>S450L, colour #0072b2</title><circle cx="77.012" cy="52.5" r="4" fill="#0072b2"/><text x="87.012" y="56.35" fill="#4b5563" font-size="11" text-anchor="start">S450L</text></g><g><title>H445Y, colour #d55e00</title><rect x="135.813" y="48.5" width="8" height="8" fill="#d55e00"/><text x="149.813" y="56.35" fill="#4b5563" font-size="11" text-anchor="start">H445Y</text></g></g><text x="62.012" y="108.7" fill="#4b5563" font-size="12" text-anchor="end">rpoB</text><g clip-path="url(#karyon-clip-1)"><g><title>codon 439, 761,121 to 761,123, L</title><rect x="72.012" y="91" width="29.625" height="13" fill="#f0f7fa"/><text x="86.824" y="101.82" fill="#1b1f23" font-size="12" text-anchor="middle">L</text></g><g><title>codon 440, 761,124 to 761,126, L</title><rect x="101.637" y="91" width="29.625" height="13" fill="#dbebf4"/><text x="116.449" y="101.82" fill="#1b1f23" font-size="12" text-anchor="middle">L</text></g><g><title>codon 441, 761,127 to 761,129, L</title><rect x="131.261" y="91" width="29.625" height="13" fill="#f0f7fa"/><text x="146.073" y="101.82" fill="#1b1f23" font-size="12" text-anchor="middle">L</text></g><g><title>codon 442, 761,130 to 761,132, L</title><rect x="160.886" y="91" width="29.625" height="13" fill="#dbebf4"/><text x="175.698" y="101.82" fill="#1b1f23" font-size="12" text-anchor="middle">L</text></g><g><title>codon 443, 761,133 to 761,135, L</title><rect x="190.51" y="91" width="29.625" height="13" fill="#f0f7fa"/><text x="205.322" y="101.82" fill="#1b1f23" font-size="12" text-anchor="middle">L</text></g><g><title>codon 444, 761,136 to 761,138, L</title><rect x="220.135" y="91" width="29.625" height="13" fill="#dbebf4"/><text x="234.947" y="101.82" fill="#1b1f23" font-size="12" text-anchor="middle">L</text></g><g><title>codon 445, 761,139 to 761,141, H</title><rect x="249.759" y="91" width="29.625" height="13" fill="#f0f7fa"/><text x="264.572" y="101.82" fill="#1b1f23" font-size="12" text-anchor="middle">H</text></g><g><title>codon 446, 761,142 to 761,144, L</title><rect x="279.384" y="91" width="29.625" height="13" fill="#dbebf4"/><text x="294.196" y="101.82" fill="#1b1f23" font-size="12" text-anchor="middle">L</text></g><g><title>codon 447, 761,145 to 761,147, L</title><rect x="309.008" y="91" width="29.625" height="13" fill="#f0f7fa"/><text x="323.821" y="101.82" fill="#1b1f23" font-size="12" text-anchor="middle">L</text></g><g><title>codon 448, 761,148 to 761,150, L</title><rect x="338.633" y="91" width="29.625" height="13" fill="#dbebf4"/><text x="353.445" y="101.82" fill="#1b1f23" font-size="12" text-anchor="middle">L</text></g><g><title>codon 449, 761,151 to 761,153, L</title><rect x="368.258" y="91" width="29.625" height="13" fill="#f0f7fa"/><text x="383.07" y="101.82" fill="#1b1f23" font-size="12" text-anchor="middle">L</text></g><g><title>codon 450, 761,154 to 761,156, S</title><rect x="397.882" y="91" width="29.625" height="13" fill="#dbebf4"/><text x="412.694" y="101.82" fill="#1b1f23" font-size="12" text-anchor="middle">S</text></g><g><title>codon 451, 761,157 to 761,159, L</title><rect x="427.507" y="91" width="29.625" height="13" fill="#f0f7fa"/><text x="442.319" y="101.82" fill="#1b1f23" font-size="12" text-anchor="middle">L</text></g><g><title>codon 452, 761,160 to 761,162, L</title><rect x="457.131" y="91" width="29.625" height="13" fill="#dbebf4"/><text x="471.943" y="101.82" fill="#1b1f23" font-size="12" text-anchor="middle">L</text></g><g><title>codon 453, 761,163 to 761,165, L</title><rect x="486.756" y="91" width="29.625" height="13" fill="#f0f7fa"/><text x="501.568" y="101.82" fill="#1b1f23" font-size="12" text-anchor="middle">L</text></g><g><title>codon 454, 761,166 to 761,168, L</title><rect x="516.38" y="91" width="29.625" height="13" fill="#dbebf4"/><text x="531.193" y="101.82" fill="#1b1f23" font-size="12" text-anchor="middle">L</text></g><g><title>codon 455, 761,169 to 761,171, L</title><rect x="546.005" y="91" width="29.625" height="13" fill="#f0f7fa"/><text x="560.817" y="101.82" fill="#1b1f23" font-size="12" text-anchor="middle">L</text></g><g><title>codon 456, 761,172 to 761,174, L</title><rect x="575.629" y="91" width="29.625" height="13" fill="#dbebf4"/><text x="590.442" y="101.82" fill="#1b1f23" font-size="12" text-anchor="middle">L</text></g><g><title>codon 457, 761,175 to 761,177, L</title><rect x="605.254" y="91" width="29.625" height="13" fill="#f0f7fa"/><text x="620.066" y="101.82" fill="#1b1f23" font-size="12" text-anchor="middle">L</text></g><g><title>codon 458, 761,178 to 761,180, L</title><rect x="634.878" y="91" width="29.625" height="13" fill="#dbebf4"/><text x="649.691" y="101.82" fill="#1b1f23" font-size="12" text-anchor="middle">L</text></g><g><title>codon 459, 761,181 to 761,183, L</title><rect x="664.503" y="91" width="29.625" height="13" fill="#f0f7fa"/><text x="679.315" y="101.82" fill="#1b1f23" font-size="12" text-anchor="middle">L</text></g><g><title>codon 460, 761,184 to 761,186, L</title><rect x="694.128" y="91" width="29.625" height="13" fill="#dbebf4"/><text x="708.94" y="101.82" fill="#1b1f23" font-size="12" text-anchor="middle">L</text></g><g><title>codon 461, 761,187 to 761,189, L</title><rect x="723.752" y="91" width="29.625" height="13" fill="#f0f7fa"/><text x="738.564" y="101.82" fill="#1b1f23" font-size="12" text-anchor="middle">L</text></g><g><title>codon 462, 761,190 to 761,192, L</title><rect x="753.377" y="91" width="29.625" height="13" fill="#dbebf4"/><text x="768.189" y="101.82" fill="#1b1f23" font-size="12" text-anchor="middle">L</text></g><g><title>codon 463, 761,193 to 761,195, L</title><rect x="783.001" y="91" width="29.625" height="13" fill="#f0f7fa"/><text x="797.813" y="101.82" fill="#1b1f23" font-size="12" text-anchor="middle">L</text></g><g><title>codon 464, 761,196 to 761,198, L</title><rect x="812.626" y="91" width="29.625" height="13" fill="#dbebf4"/><text x="827.438" y="101.82" fill="#1b1f23" font-size="12" text-anchor="middle">L</text></g><g><title>codon 465, 761,199 to 761,201, L</title><rect x="842.25" y="91" width="29.625" height="13" fill="#f0f7fa"/><text x="857.063" y="101.82" fill="#1b1f23" font-size="12" text-anchor="middle">L</text></g><line x1="72.012" y1="104.5" x2="862" y2="104.5" stroke="#1b1f23" stroke-width="1"/><line x1="86.824" y1="104.5" x2="86.824" y2="107.5" stroke="#1b1f23" stroke-width="1"/><text x="86.824" y="116" fill="#4b5563" font-size="12" text-anchor="middle">439</text><line x1="116.449" y1="104.5" x2="116.449" y2="107.5" stroke="#1b1f23" stroke-width="1"/><text x="116.449" y="116" fill="#4b5563" font-size="12" text-anchor="middle">440</text><line x1="146.073" y1="104.5" x2="146.073" y2="107.5" stroke="#1b1f23" stroke-width="1"/><text x="146.073" y="116" fill="#4b5563" font-size="12" text-anchor="middle">441</text><line x1="175.698" y1="104.5" x2="175.698" y2="107.5" stroke="#1b1f23" stroke-width="1"/><text x="175.698" y="116" fill="#4b5563" font-size="12" text-anchor="middle">442</text><line x1="205.322" y1="104.5" x2="205.322" y2="107.5" stroke="#1b1f23" stroke-width="1"/><text x="205.322" y="116" fill="#4b5563" font-size="12" text-anchor="middle">443</text><line x1="234.947" y1="104.5" x2="234.947" y2="107.5" stroke="#1b1f23" stroke-width="1"/><text x="234.947" y="116" fill="#4b5563" font-size="12" text-anchor="middle">444</text><line x1="264.572" y1="104.5" x2="264.572" y2="107.5" stroke="#1b1f23" stroke-width="1"/><text x="264.572" y="116" fill="#4b5563" font-size="12" text-anchor="middle">445</text><line x1="294.196" y1="104.5" x2="294.196" y2="107.5" stroke="#1b1f23" stroke-width="1"/><text x="294.196" y="116" fill="#4b5563" font-size="12" text-anchor="middle">446</text><line x1="323.821" y1="104.5" x2="323.821" y2="107.5" stroke="#1b1f23" stroke-width="1"/><text x="323.821" y="116" fill="#4b5563" font-size="12" text-anchor="middle">447</text><line x1="353.445" y1="104.5" x2="353.445" y2="107.5" stroke="#1b1f23" stroke-width="1"/><text x="353.445" y="116" fill="#4b5563" font-size="12" text-anchor="middle">448</text><line x1="383.07" y1="104.5" x2="383.07" y2="107.5" stroke="#1b1f23" stroke-width="1"/><text x="383.07" y="116" fill="#4b5563" font-size="12" text-anchor="middle">449</text><line x1="412.694" y1="104.5" x2="412.694" y2="107.5" stroke="#1b1f23" stroke-width="1"/><text x="412.694" y="116" fill="#4b5563" font-size="12" text-anchor="middle">450</text><line x1="442.319" y1="104.5" x2="442.319" y2="107.5" stroke="#1b1f23" stroke-width="1"/><text x="442.319" y="116" fill="#4b5563" font-size="12" text-anchor="middle">451</text><line x1="471.943" y1="104.5" x2="471.943" y2="107.5" stroke="#1b1f23" stroke-width="1"/><text x="471.943" y="116" fill="#4b5563" font-size="12" text-anchor="middle">452</text><line x1="501.568" y1="104.5" x2="501.568" y2="107.5" stroke="#1b1f23" stroke-width="1"/><text x="501.568" y="116" fill="#4b5563" font-size="12" text-anchor="middle">453</text><line x1="531.193" y1="104.5" x2="531.193" y2="107.5" stroke="#1b1f23" stroke-width="1"/><text x="531.193" y="116" fill="#4b5563" font-size="12" text-anchor="middle">454</text><line x1="560.817" y1="104.5" x2="560.817" y2="107.5" stroke="#1b1f23" stroke-width="1"/><text x="560.817" y="116" fill="#4b5563" font-size="12" text-anchor="middle">455</text><line x1="590.442" y1="104.5" x2="590.442" y2="107.5" stroke="#1b1f23" stroke-width="1"/><text x="590.442" y="116" fill="#4b5563" font-size="12" text-anchor="middle">456</text><line x1="620.066" y1="104.5" x2="620.066" y2="107.5" stroke="#1b1f23" stroke-width="1"/><text x="620.066" y="116" fill="#4b5563" font-size="12" text-anchor="middle">457</text><line x1="649.691" y1="104.5" x2="649.691" y2="107.5" stroke="#1b1f23" stroke-width="1"/><text x="649.691" y="116" fill="#4b5563" font-size="12" text-anchor="middle">458</text><line x1="679.315" y1="104.5" x2="679.315" y2="107.5" stroke="#1b1f23" stroke-width="1"/><text x="679.315" y="116" fill="#4b5563" font-size="12" text-anchor="middle">459</text><line x1="708.94" y1="104.5" x2="708.94" y2="107.5" stroke="#1b1f23" stroke-width="1"/><text x="708.94" y="116" fill="#4b5563" font-size="12" text-anchor="middle">460</text><line x1="738.564" y1="104.5" x2="738.564" y2="107.5" stroke="#1b1f23" stroke-width="1"/><text x="738.564" y="116" fill="#4b5563" font-size="12" text-anchor="middle">461</text><line x1="768.189" y1="104.5" x2="768.189" y2="107.5" stroke="#1b1f23" stroke-width="1"/><text x="768.189" y="116" fill="#4b5563" font-size="12" text-anchor="middle">462</text><line x1="797.813" y1="104.5" x2="797.813" y2="107.5" stroke="#1b1f23" stroke-width="1"/><text x="797.813" y="116" fill="#4b5563" font-size="12" text-anchor="middle">463</text><line x1="827.438" y1="104.5" x2="827.438" y2="107.5" stroke="#1b1f23" stroke-width="1"/><text x="827.438" y="116" fill="#4b5563" font-size="12" text-anchor="middle">464</text><line x1="857.063" y1="104.5" x2="857.063" y2="107.5" stroke="#1b1f23" stroke-width="1"/></g><g clip-path="url(#karyon-clip-2)"><line x1="72.012" y1="131.5" x2="862" y2="131.5" stroke="#1b1f23" stroke-width="1.2"/><line x1="160.886" y1="131.5" x2="160.886" y2="136.5" stroke="#1b1f23" stroke-width="1.2"/><text x="160.886" y="148.5" fill="#4b5563" font-size="12" text-anchor="middle">761.13 kb</text><line x1="259.634" y1="131.5" x2="259.634" y2="136.5" stroke="#1b1f23" stroke-width="1.2"/><text x="259.634" y="148.5" fill="#4b5563" font-size="12" text-anchor="middle">761.14 kb</text><line x1="358.383" y1="131.5" x2="358.383" y2="136.5" stroke="#1b1f23" stroke-width="1.2"/><text x="358.383" y="148.5" fill="#4b5563" font-size="12" text-anchor="middle">761.15 kb</text><line x1="457.131" y1="131.5" x2="457.131" y2="136.5" stroke="#1b1f23" stroke-width="1.2"/><text x="457.131" y="148.5" fill="#4b5563" font-size="12" text-anchor="middle">761.16 kb</text><line x1="555.88" y1="131.5" x2="555.88" y2="136.5" stroke="#1b1f23" stroke-width="1.2"/><text x="555.88" y="148.5" fill="#4b5563" font-size="12" text-anchor="middle">761.17 kb</text><line x1="654.628" y1="131.5" x2="654.628" y2="136.5" stroke="#1b1f23" stroke-width="1.2"/><text x="654.628" y="148.5" fill="#4b5563" font-size="12" text-anchor="middle">761.18 kb</text><line x1="753.377" y1="131.5" x2="753.377" y2="136.5" stroke="#1b1f23" stroke-width="1.2"/><text x="753.377" y="148.5" fill="#4b5563" font-size="12" text-anchor="middle">761.19 kb</text><line x1="852.125" y1="131.5" x2="852.125" y2="136.5" stroke="#1b1f23" stroke-width="1.2"/><text x="862" y="148.5" fill="#4b5563" font-size="12" text-anchor="end">761.20 kb</text></g></svg>