<svg xmlns="http://www.w3.org/2000/svg" viewBox="0 0 702 474" width="702" height="474" shape-rendering="crispEdges" role="img" aria-label="karyon"><title>karyon</title><defs><linearGradient id="karyon-rows-0" gradientUnits="userSpaceOnUse" x1="0" y1="156" x2="0" y2="366"><stop offset="0" stop-color="#2b3be8"/><stop offset="0.0285714" stop-color="#2b3be8"/><stop offset="0.0285714" stop-color="#303be7"/><stop offset="0.0571429" stop-color="#303be7"/><stop offset="0.0571429" stop-color="#353ce7"/><stop offset="0.0857143" stop-color="#353ce7"/><stop offset="0.114286" stop-color="#3f3ce6"/><stop offset="0.142857" stop-color="#3f3ce6"/><stop offset="0.142857" stop-color="#443de5"/><stop offset="0.171429" stop-color="#443de5"/><stop offset="0.171429" stop-color="#493de4"/><stop offset="0.2" stop-color="#493de4"/><stop offset="0.228571" stop-color="#533de3"/><stop offset="0.257143" stop-color="#533de3"/><stop offset="0.257143" stop-color="#583ee2"/><stop offset="0.285714" stop-color="#583ee2"/><stop offset="0.285714" stop-color="#5d3ee2"/><stop offset="0.314286" stop-color="#5d3ee2"/><stop offset="0.342857" stop-color="#663fe1"/><stop offset="0.371429" stop-color="#663fe1"/><stop offset="0.371429" stop-color="#6c3fe0"/><stop offset="0.4" stop-color="#6c3fe0"/><stop offset="0.4" stop-color="#7241df"/><stop offset="0.428571" stop-color="#7241df"/><stop offset="0.457143" stop-color="#8044de"/><stop offset="0.485714" stop-color="#8044de"/><stop offset="0.485714" stop-color="#8745dd"/><stop offset="0.514286" stop-color="#8745dd"/><stop offset="0.514286" stop-color="#8d46dc"/><stop offset="0.542857" stop-color="#8d46dc"/><stop offset="0.571429" stop-color="#9b49da"/><stop offset="0.6" stop-color="#9b49da"/><stop offset="0.6" stop-color="#a24bda"/><stop offset="0.628571" stop-color="#a24bda"/><stop offset="0.628571" stop-color="#a84cd9"/><stop offset="0.657143" stop-color="#a84cd9"/><stop offset="0.685714" stop-color="#b64ed4"/><stop offset="0.714286" stop-color="#b64ed4"/><stop offset="0.714286" stop-color="#be4ecf"/><stop offset="0.742857" stop-color="#be4ecf"/><stop offset="0.742857" stop-color="#c54eca"/><stop offset="0.771429" stop-color="#c54eca"/><stop offset="0.8" stop-color="#d34ec0"/><stop offset="0.828571" stop-color="#d34ec0"/><stop offset="0.828571" stop-color="#db4fbb"/><stop offset="0.857143" stop-color="#db4fbb"/><stop offset="0.857143" stop-color="#e24fb6"/><stop offset="0.885714" stop-color="#e24fb6"/><stop offset="0.914286" stop-color="#f04fad"/><stop offset="0.942857" stop-color="#f04fad"/><stop offset="0.942857" stop-color="#f84fa8"/><stop offset="0.971429" stop-color="#f84fa8"/><stop offset="0.971429" stop-color="#ff4fa3"/><stop offset="1" stop-color="#ff4fa3"/></linearGradient><linearGradient id="karyon-rows-8" gradientUnits="userSpaceOnUse" x1="0" y1="390" x2="0" y2="438"><stop offset="0" stop-color="#eb4fb0"/><stop offset="0.125" stop-color="#eb4fb0"/><stop offset="0.125" stop-color="#d74ebe"/><stop offset="0.25" stop-color="#d74ebe"/><stop offset="0.25" stop-color="#c34ecb"/><stop offset="0.375" stop-color="#c34ecb"/><stop offset="0.375" stop-color="#af4ed8"/><stop offset="0.5" stop-color="#af4ed8"/><stop offset="0.5" stop-color="#9c4ada"/><stop offset="0.625" stop-color="#9c4ada"/><stop offset="0.625" stop-color="#8946dc"/><stop offset="0.75" stop-color="#8946dc"/><stop offset="0.75" stop-color="#7742df"/><stop offset="0.875" stop-color="#7742df"/><stop offset="0.875" stop-color="#663fe1"/><stop offset="1" stop-color="#663fe1"/></linearGradient></defs><path fill="url(#karyon-rows-0)" fill-rule="evenodd" d="M12 174H48V156H12zM12 198H48V180H12zM12 222H48V204H12zM12 228V246H48V228zM12 270H90V264H84V252H12zM48 294V282H54V276H12V294zM48 318V300H12V318zM108 222V216H114V210H120V204H78V216H72V222zM60 228V234H54V246H90V240H96V234H102V228zM60 276V288H66V294H108V288H102V282H96V276zM78 312H84V318H120V306H114V300H72V306H78zM150 216H138V222H228V216H222V210H210V204H156V210H150zM132 228V234H144V240H168V234H174V228zM150 252V258H138V264H132V270H234V252zM132 294H162V276H132zM132 300V306H138V312H144V318H186V312H192V306H198V318H234V300zM192 234H198V246H234V228H192zM198 288H192V294H234V276H198zM318 222V204H294V210H288V216H282V204H246V222zM246 228V246H288V240H294V234H318V228zM246 252V270H282V252zM282 294V276H246V294zM246 300V318H282V300zM324 204V210H330V222H366V204zM342 240V246H372V228H336V240zM384 270V264H378V252H342V258H348V270zM360 288V294H420V276H390V282H384V276H354V288zM408 318V306H414V300H360V306H366V318zM342 336V342H402V324H366V336zM378 366V360H384V354H390V348H336V366zM444 222V210H450V204H414V210H408V222zM438 246V228H402V246zM396 264H390V270H426V258H432V252H396zM480 216H474V222H558V216H546V210H540V204H486V210H480zM462 240H456V246H498V234H504V228H462zM456 252V270H492V252zM456 282H462V294H504V288H498V276H456zM540 318V312H552V306H558V300H468V306H474V312H486V318zM528 240H534V246H570V240H564V228H522V234H528zM534 270H570V252H534zM534 282H528V288H522V294H564V282H570V276H534zM582 222H684V216H678V210H672V204H636V210H624V216H618V204H582zM582 228V246H618V240H624V234H648V240H654V246H690V228zM582 252V270H618V252zM618 294V276H582V294zM582 318H618V300H582zM690 270V252H654V270zM654 276V294H690V276zM654 300V318H690V300z"/><path fill="#d9d2ff" fill-rule="evenodd" d="M210 102V108H216V102zM222 108H228V102H222zM234 108H240V102H234zM174 108V114H180V108zM186 114H192V108H186zM198 114H204V108H198zM138 114V120H144V114zM150 120H156V114H150zM162 120H168V114H162zM102 126H108V120H102zM114 126H120V120H114zM126 126H132V120H126zM66 132H72V126H66zM78 126V132H84V126zM90 132H96V126H90zM30 138H36V132H30zM42 138H48V132H42zM54 138H60V132H54zM18 144H24V138H18zM366 84H372V75H366zM420 75H414V84H420zM354 84H360V78H354zM426 84H432V78H426zM318 90H324V84H318zM330 90H336V84H330zM342 84V90H348V84zM438 90H444V84H438zM450 90H456V84H450zM282 96H288V90H282zM294 96H300V90H294zM306 96H312V90H306zM462 96H468V90H462zM474 90V96H480V90zM246 102H252V96H246zM258 102H264V96H258zM270 102H276V96H270zM486 102H492V96H486zM498 102H504V96H498zM510 108H516V102H510zM522 102V108H528V102zM534 108H540V102H534zM546 114H552V108H546zM558 114H564V108H558zM570 120H576V114H570zM582 120H588V114H582zM594 126H600V120H594zM606 120V126H612V120zM618 132H624V126H618zM630 132H636V126H630zM642 132H648V126H642zM654 138H660V132H654zM666 138H672V132H666zM678 144H684V138H678z"/><path fill="#d9d2ff" fill-rule="evenodd" d="M192 60H198V66H294V60H306V66H504V60H510V30H504V24H306V30H294V24H198V30H192z"/><path fill="#8f6fe8" fill-rule="evenodd" d="M204 60H216V30H204zM360 60H366V30H360z"/><path fill="#b9a8f5" fill-rule="evenodd" d="M234 60H252V30H234zM432 60H438V30H432z"/><path fill="#6b3fe0" fill-rule="evenodd" d="M276 60H282V30H276zM324 30V60H342V30zM396 60H408V30H396zM468 30V60H480V30z"/><path fill="#b04ed8" fill-rule="evenodd" d="M450 30V60H456V30z"/><path fill="#ff4fa3" fill-rule="evenodd" d="M366 78H420V12H366zM372 18H414V72H372zM294 60H306V30H294z"/><path fill="url(#karyon-rows-8)" fill-rule="evenodd" d="M18 396V402H12V438H690V408H666V414H642V408H630V402H618V396H606V390H558V396H540V402H468V408H456V414H408V408H396V402H384V396H366V390H348V396H306V432H258V396H252V402H240V408H228V414H180V408H168V402H144V396H120V402H96V396H72V390H36V396z"/><path fill="#ff4fa3" fill-rule="evenodd" d="M270 396H276V426H282V396H288V378H270z"/><path fill="#d9d2ff" fill-rule="evenodd" d="M12 450V462H18V456H60V462H66V456H108V462H114V456H156V462H162V456H204V462H210V456H252V462H258V456H300V462H306V456H348V462H354V456H396V462H402V456H444V462H450V456H492V462H498V456H540V462H546V456H588V462H594V456H636V462H642V456H684V462H690V450z"/></svg>
