<svg xmlns="http://www.w3.org/2000/svg" width="940" height="264" viewBox="0 0 940 264" font-family="Inter, Liberation Sans, Arial, Helvetica, sans-serif" role="img" aria-labelledby="karyon-title karyon-desc"><title id="karyon-title">A Klebsiella accessory genome, sorted by the tree beside it, NC_016845.1:2100001-2160000</title><desc id="karyon-desc">A karyon figure over NC_016845.1:2100001-2160000, with 3 tracks, drawn top to bottom: islands, presence.</desc><defs><clipPath id="karyon-clip-0"><rect x="224.999" y="43" width="697.001" height="14"/></clipPath><clipPath id="karyon-clip-1"><rect x="83.185" y="69" width="838.815" height="143"/></clipPath><clipPath id="karyon-clip-2"><rect x="224.999" y="224" width="697.001" height="26"/></clipPath></defs><rect x="0" y="0" width="940" height="264" fill="#ffffff"/><text x="16" y="31" fill="#1a1233" font-size="17" text-anchor="start" font-weight="bold">A Klebsiella accessory genome, sorted by the tree beside it</text><rect x="715.2" y="16.725" width="206.8" height="20.5" rx="10.25" fill="#e8e7eb"/><text x="818.6" y="31" fill="#5b5480" font-size="11.5" text-anchor="middle" font-family="JetBrains Mono, Liberation Mono, Menlo, Consolas, monospace">NC_016845.1:2100001-2160000</text><text x="73.185" y="53.85" fill="#5b5480" font-size="11" text-anchor="end" font-weight="600" letter-spacing="0.03em">islands</text><g clip-path="url(#karyon-clip-0)"><g><title>island A, 2,113,001 to 2,126,000, forward</title><polygon points="376.416,43.4 518.633,43.4 526.633,50 518.633,56.6 376.416,56.6" fill="#a6b2e8" stroke="#1634c2" stroke-width="0.8" stroke-linejoin="round"/><text x="451.524" y="54.025" fill="#1a1233" font-size="11.5" text-anchor="middle">island A</text></g><g><title>island B, 2,139,001 to 2,150,000, reverse</title><polygon points="805.433,43.4 686.45,43.4 678.45,50 686.45,56.6 805.433,56.6" fill="#f6b6db" stroke="#e63f9f" stroke-width="0.8" stroke-linejoin="round"/><text x="741.941" y="54.025" fill="#1a1233" font-size="11.5" text-anchor="middle">island B</text></g></g><text x="73.185" y="144.35" fill="#5b5480" font-size="11" text-anchor="end" font-weight="600" letter-spacing="0.03em">presence</text><g clip-path="url(#karyon-clip-1)"><line x1="85.185" y1="100.5" x2="135.585" y2="100.5" stroke="#1a1233" stroke-width="1.1"/><line x1="135.585" y1="84.5" x2="162.465" y2="84.5" stroke="#1a1233" stroke-width="1.1"/><line x1="162.465" y1="76.5" x2="169.185" y2="76.5" stroke="#1a1233" stroke-width="1.1"/><line x1="162.465" y1="92.5" x2="169.185" y2="92.5" stroke="#1a1233" stroke-width="1.1"/><line x1="135.585" y1="116.5" x2="159.105" y2="116.5" stroke="#1a1233" stroke-width="1.1"/><line x1="159.105" y1="108.5" x2="167.505" y2="108.5" stroke="#1a1233" stroke-width="1.1"/><line x1="159.105" y1="124.5" x2="164.145" y2="124.5" stroke="#1a1233" stroke-width="1.1"/><line x1="85.185" y1="166.5" x2="128.865" y2="166.5" stroke="#1a1233" stroke-width="1.1"/><line x1="128.865" y1="148.5" x2="142.305" y2="148.5" stroke="#1a1233" stroke-width="1.1"/><line x1="142.305" y1="140.5" x2="160.785" y2="140.5" stroke="#1a1233" stroke-width="1.1"/><line x1="142.305" y1="156.5" x2="159.105" y2="156.5" stroke="#1a1233" stroke-width="1.1"/><line x1="128.865" y1="184.5" x2="147.345" y2="184.5" stroke="#1a1233" stroke-width="1.1"/><line x1="147.345" y1="172.5" x2="162.465" y2="172.5" stroke="#1a1233" stroke-width="1.1"/><line x1="147.345" y1="196.5" x2="154.065" y2="196.5" stroke="#1a1233" stroke-width="1.1"/><line x1="154.065" y1="188.5" x2="164.145" y2="188.5" stroke="#1a1233" stroke-width="1.1"/><line x1="154.065" y1="204.5" x2="165.825" y2="204.5" stroke="#1a1233" stroke-width="1.1"/><line x1="85.185" y1="100.5" x2="85.185" y2="166.5" stroke="#1a1233" stroke-width="1.1"/><line x1="135.585" y1="84.5" x2="135.585" y2="116.5" stroke="#1a1233" stroke-width="1.1"/><line x1="162.465" y1="76.5" x2="162.465" y2="92.5" stroke="#1a1233" stroke-width="1.1"/><line x1="159.105" y1="108.5" x2="159.105" y2="124.5" stroke="#1a1233" stroke-width="1.1"/><line x1="128.865" y1="148.5" x2="128.865" y2="184.5" stroke="#1a1233" stroke-width="1.1"/><line x1="142.305" y1="140.5" x2="142.305" y2="156.5" stroke="#1a1233" stroke-width="1.1"/><line x1="147.345" y1="172.5" x2="147.345" y2="196.5" stroke="#1a1233" stroke-width="1.1"/><line x1="154.065" y1="188.5" x2="154.065" y2="204.5" stroke="#1a1233" stroke-width="1.1"/><g><title>ERR5001, 26 of 26 sites called</title><rect x="229.96" y="69" width="11" height="15" fill="#1634c2"/><rect x="255.517" y="69" width="11" height="15" fill="#1634c2"/><rect x="281.073" y="69" width="11" height="15" fill="#1634c2"/><rect x="306.63" y="69" width="11" height="15" fill="#1634c2"/><rect x="332.187" y="69" width="11" height="15" fill="#1634c2"/><rect x="357.743" y="69" width="11" height="15" fill="#1634c2"/><rect x="383.3" y="69" width="11" height="15" fill="#1634c2"/><rect x="408.857" y="69" width="11" height="15" fill="#1634c2"/><rect x="434.413" y="69" width="11" height="15" fill="#1634c2"/><rect x="459.97" y="69" width="11" height="15" fill="#1634c2"/><rect x="485.527" y="69" width="11" height="15" fill="#1634c2"/><rect x="511.084" y="69" width="11" height="15" fill="#1634c2"/><rect x="536.64" y="69" width="11" height="15" fill="#1634c2"/><rect x="562.197" y="69" width="11" height="15" fill="#1634c2"/><rect x="587.754" y="69" width="11" height="15" fill="#1634c2"/><rect x="613.31" y="69" width="11" height="15" fill="#1634c2"/><rect x="638.867" y="69" width="11" height="15" fill="#1634c2"/><rect x="664.424" y="69" width="11" height="15" fill="#1634c2"/><rect x="689.98" y="69" width="11" height="15" fill="#e8ebf9"/><rect x="715.537" y="69" width="11" height="15" fill="#e8ebf9"/><rect x="741.094" y="69" width="11" height="15" fill="#e8ebf9"/><rect x="766.651" y="69" width="11" height="15" fill="#e8ebf9"/><rect x="792.207" y="69" width="11" height="15" fill="#e8ebf9"/><rect x="817.764" y="69" width="11" height="15" fill="#1634c2"/><rect x="843.321" y="69" width="11" height="15" fill="#e8ebf9"/><rect x="868.877" y="69" width="11" height="15" fill="#1634c2"/><text x="220.999" y="79.825" fill="#5b5480" font-size="9.5" text-anchor="end">ERR5001</text></g><g><title>ERR5002, 26 of 26 sites called</title><rect x="229.96" y="85" width="11" height="15" fill="#1634c2"/><rect x="255.517" y="85" width="11" height="15" fill="#1634c2"/><rect x="281.073" y="85" width="11" height="15" fill="#1634c2"/><rect x="306.63" y="85" width="11" height="15" fill="#1634c2"/><rect x="332.187" y="85" width="11" height="15" fill="#1634c2"/><rect x="357.743" y="85" width="11" height="15" fill="#1634c2"/><rect x="383.3" y="85" width="11" height="15" fill="#1634c2"/><rect x="408.857" y="85" width="11" height="15" fill="#1634c2"/><rect x="434.413" y="85" width="11" height="15" fill="#1634c2"/><rect x="459.97" y="85" width="11" height="15" fill="#1634c2"/><rect x="485.527" y="85" width="11" height="15" fill="#1634c2"/><rect x="511.084" y="85" width="11" height="15" fill="#1634c2"/><rect x="536.64" y="85" width="11" height="15" fill="#1634c2"/><rect x="562.197" y="85" width="11" height="15" fill="#1634c2"/><rect x="587.754" y="85" width="11" height="15" fill="#1634c2"/><rect x="613.31" y="85" width="11" height="15" fill="#1634c2"/><rect x="638.867" y="85" width="11" height="15" fill="#1634c2"/><rect x="664.424" y="85" width="11" height="15" fill="#1634c2"/><rect x="689.98" y="85" width="11" height="15" fill="#e8ebf9"/><rect x="715.537" y="85" width="11" height="15" fill="#e8ebf9"/><rect x="741.094" y="85" width="11" height="15" fill="#e8ebf9"/><rect x="766.651" y="85" width="11" height="15" fill="#e8ebf9"/><rect x="792.207" y="85" width="11" height="15" fill="#e8ebf9"/><rect x="817.764" y="85" width="11" height="15" fill="#1634c2"/><rect x="843.321" y="85" width="11" height="15" fill="#1634c2"/><rect x="868.877" y="85" width="11" height="15" fill="#1634c2"/><text x="220.999" y="95.825" fill="#5b5480" font-size="9.5" text-anchor="end">ERR5002</text></g><g><title>ERR5003, 26 of 26 sites called</title><rect x="229.96" y="101" width="11" height="15" fill="#1634c2"/><rect x="255.517" y="101" width="11" height="15" fill="#1634c2"/><rect x="281.073" y="101" width="11" height="15" fill="#1634c2"/><rect x="306.63" y="101" width="11" height="15" fill="#1634c2"/><rect x="332.187" y="101" width="11" height="15" fill="#1634c2"/><rect x="357.743" y="101" width="11" height="15" fill="#1634c2"/><rect x="383.3" y="101" width="11" height="15" fill="#1634c2"/><rect x="408.857" y="101" width="11" height="15" fill="#1634c2"/><rect x="434.413" y="101" width="11" height="15" fill="#1634c2"/><rect x="459.97" y="101" width="11" height="15" fill="#1634c2"/><rect x="485.527" y="101" width="11" height="15" fill="#1634c2"/><rect x="511.084" y="101" width="11" height="15" fill="#1634c2"/><rect x="536.64" y="101" width="11" height="15" fill="#1634c2"/><rect x="562.197" y="101" width="11" height="15" fill="#1634c2"/><rect x="587.754" y="101" width="11" height="15" fill="#1634c2"/><rect x="613.31" y="101" width="11" height="15" fill="#1634c2"/><rect x="638.867" y="101" width="11" height="15" fill="#1634c2"/><rect x="664.424" y="101" width="11" height="15" fill="#1634c2"/><rect x="689.98" y="101" width="11" height="15" fill="#e8ebf9"/><rect x="715.537" y="101" width="11" height="15" fill="#e8ebf9"/><rect x="741.094" y="101" width="11" height="15" fill="#e8ebf9"/><rect x="766.651" y="101" width="11" height="15" fill="#e8ebf9"/><rect x="792.207" y="101" width="11" height="15" fill="#e8ebf9"/><rect x="817.764" y="101" width="11" height="15" fill="#1634c2"/><rect x="843.321" y="101" width="11" height="15" fill="#1634c2"/><rect x="868.877" y="101" width="11" height="15" fill="#1634c2"/><text x="220.999" y="111.825" fill="#5b5480" font-size="9.5" text-anchor="end">ERR5003</text></g><g><title>ERR5004, 25 of 26 sites called</title><rect x="229.96" y="117" width="11" height="15" fill="#1634c2"/><rect x="255.517" y="117" width="11" height="15" fill="#1634c2"/><rect x="281.073" y="117" width="11" height="15" fill="#1634c2"/><rect x="306.63" y="117" width="11" height="15" fill="#1634c2"/><rect x="332.187" y="117" width="11" height="15" fill="#1634c2"/><rect x="357.743" y="117" width="11" height="15" fill="#1634c2"/><rect x="383.3" y="117" width="11" height="15" fill="#1634c2"/><rect x="408.857" y="117" width="11" height="15" fill="#1634c2"/><rect x="434.413" y="117" width="11" height="15" fill="#1634c2"/><rect x="459.97" y="117" width="11" height="15" fill="#1634c2"/><rect x="485.527" y="117" width="11" height="15" fill="#1634c2"/><rect x="511.084" y="117" width="11" height="15" fill="#e8ebf9"/><rect x="536.64" y="117" width="11" height="15" fill="#1634c2"/><rect x="562.197" y="117" width="11" height="15" fill="#1634c2"/><rect x="587.754" y="117" width="11" height="15" fill="#1634c2"/><rect x="613.31" y="117" width="11" height="15" fill="#1634c2"/><rect x="638.867" y="117" width="11" height="15" fill="#1634c2"/><rect x="664.424" y="117" width="11" height="15" fill="#1634c2"/><rect x="689.98" y="117" width="11" height="15" fill="#f3f0fb"/><rect x="715.537" y="117" width="11" height="15" fill="#e8ebf9"/><rect x="741.094" y="117" width="11" height="15" fill="#e8ebf9"/><rect x="766.651" y="117" width="11" height="15" fill="#e8ebf9"/><rect x="792.207" y="117" width="11" height="15" fill="#e8ebf9"/><rect x="817.764" y="117" width="11" height="15" fill="#1634c2"/><rect x="843.321" y="117" width="11" height="15" fill="#1634c2"/><rect x="868.877" y="117" width="11" height="15" fill="#1634c2"/><text x="220.999" y="127.825" fill="#5b5480" font-size="9.5" text-anchor="end">ERR5004</text></g><g><title>ERR5005, 26 of 26 sites called</title><rect x="229.96" y="133" width="11" height="15" fill="#1634c2"/><rect x="255.517" y="133" width="11" height="15" fill="#1634c2"/><rect x="281.073" y="133" width="11" height="15" fill="#1634c2"/><rect x="306.63" y="133" width="11" height="15" fill="#1634c2"/><rect x="332.187" y="133" width="11" height="15" fill="#1634c2"/><rect x="357.743" y="133" width="11" height="15" fill="#1634c2"/><rect x="383.3" y="133" width="11" height="15" fill="#e8ebf9"/><rect x="408.857" y="133" width="11" height="15" fill="#e8ebf9"/><rect x="434.413" y="133" width="11" height="15" fill="#e8ebf9"/><rect x="459.97" y="133" width="11" height="15" fill="#e8ebf9"/><rect x="485.527" y="133" width="11" height="15" fill="#e8ebf9"/><rect x="511.084" y="133" width="11" height="15" fill="#e8ebf9"/><rect x="536.64" y="133" width="11" height="15" fill="#1634c2"/><rect x="562.197" y="133" width="11" height="15" fill="#1634c2"/><rect x="587.754" y="133" width="11" height="15" fill="#e8ebf9"/><rect x="613.31" y="133" width="11" height="15" fill="#1634c2"/><rect x="638.867" y="133" width="11" height="15" fill="#1634c2"/><rect x="664.424" y="133" width="11" height="15" fill="#1634c2"/><rect x="689.98" y="133" width="11" height="15" fill="#1634c2"/><rect x="715.537" y="133" width="11" height="15" fill="#1634c2"/><rect x="741.094" y="133" width="11" height="15" fill="#e8ebf9"/><rect x="766.651" y="133" width="11" height="15" fill="#1634c2"/><rect x="792.207" y="133" width="11" height="15" fill="#1634c2"/><rect x="817.764" y="133" width="11" height="15" fill="#1634c2"/><rect x="843.321" y="133" width="11" height="15" fill="#1634c2"/><rect x="868.877" y="133" width="11" height="15" fill="#1634c2"/><text x="220.999" y="143.825" fill="#5b5480" font-size="9.5" text-anchor="end">ERR5005</text></g><g><title>ERR5006, 26 of 26 sites called</title><rect x="229.96" y="149" width="11" height="15" fill="#1634c2"/><rect x="255.517" y="149" width="11" height="15" fill="#1634c2"/><rect x="281.073" y="149" width="11" height="15" fill="#1634c2"/><rect x="306.63" y="149" width="11" height="15" fill="#1634c2"/><rect x="332.187" y="149" width="11" height="15" fill="#1634c2"/><rect x="357.743" y="149" width="11" height="15" fill="#1634c2"/><rect x="383.3" y="149" width="11" height="15" fill="#e8ebf9"/><rect x="408.857" y="149" width="11" height="15" fill="#e8ebf9"/><rect x="434.413" y="149" width="11" height="15" fill="#e8ebf9"/><rect x="459.97" y="149" width="11" height="15" fill="#e8ebf9"/><rect x="485.527" y="149" width="11" height="15" fill="#e8ebf9"/><rect x="511.084" y="149" width="11" height="15" fill="#e8ebf9"/><rect x="536.64" y="149" width="11" height="15" fill="#1634c2"/><rect x="562.197" y="149" width="11" height="15" fill="#1634c2"/><rect x="587.754" y="149" width="11" height="15" fill="#e8ebf9"/><rect x="613.31" y="149" width="11" height="15" fill="#1634c2"/><rect x="638.867" y="149" width="11" height="15" fill="#1634c2"/><rect x="664.424" y="149" width="11" height="15" fill="#1634c2"/><rect x="689.98" y="149" width="11" height="15" fill="#1634c2"/><rect x="715.537" y="149" width="11" height="15" fill="#1634c2"/><rect x="741.094" y="149" width="11" height="15" fill="#1634c2"/><rect x="766.651" y="149" width="11" height="15" fill="#1634c2"/><rect x="792.207" y="149" width="11" height="15" fill="#1634c2"/><rect x="817.764" y="149" width="11" height="15" fill="#1634c2"/><rect x="843.321" y="149" width="11" height="15" fill="#1634c2"/><rect x="868.877" y="149" width="11" height="15" fill="#1634c2"/><text x="220.999" y="159.825" fill="#5b5480" font-size="9.5" text-anchor="end">ERR5006</text></g><g><title>ERR5007, 26 of 26 sites called</title><rect x="229.96" y="165" width="11" height="15" fill="#1634c2"/><rect x="255.517" y="165" width="11" height="15" fill="#1634c2"/><rect x="281.073" y="165" width="11" height="15" fill="#1634c2"/><rect x="306.63" y="165" width="11" height="15" fill="#1634c2"/><rect x="332.187" y="165" width="11" height="15" fill="#1634c2"/><rect x="357.743" y="165" width="11" height="15" fill="#1634c2"/><rect x="383.3" y="165" width="11" height="15" fill="#e8ebf9"/><rect x="408.857" y="165" width="11" height="15" fill="#e8ebf9"/><rect x="434.413" y="165" width="11" height="15" fill="#e8ebf9"/><rect x="459.97" y="165" width="11" height="15" fill="#e8ebf9"/><rect x="485.527" y="165" width="11" height="15" fill="#e8ebf9"/><rect x="511.084" y="165" width="11" height="15" fill="#e8ebf9"/><rect x="536.64" y="165" width="11" height="15" fill="#1634c2"/><rect x="562.197" y="165" width="11" height="15" fill="#1634c2"/><rect x="587.754" y="165" width="11" height="15" fill="#1634c2"/><rect x="613.31" y="165" width="11" height="15" fill="#1634c2"/><rect x="638.867" y="165" width="11" height="15" fill="#1634c2"/><rect x="664.424" y="165" width="11" height="15" fill="#1634c2"/><rect x="689.98" y="165" width="11" height="15" fill="#1634c2"/><rect x="715.537" y="165" width="11" height="15" fill="#1634c2"/><rect x="741.094" y="165" width="11" height="15" fill="#1634c2"/><rect x="766.651" y="165" width="11" height="15" fill="#1634c2"/><rect x="792.207" y="165" width="11" height="15" fill="#1634c2"/><rect x="817.764" y="165" width="11" height="15" fill="#1634c2"/><rect x="843.321" y="165" width="11" height="15" fill="#1634c2"/><rect x="868.877" y="165" width="11" height="15" fill="#1634c2"/><text x="220.999" y="175.825" fill="#5b5480" font-size="9.5" text-anchor="end">ERR5007</text></g><g><title>ERR5008, 26 of 26 sites called</title><rect x="229.96" y="181" width="11" height="15" fill="#1634c2"/><rect x="255.517" y="181" width="11" height="15" fill="#1634c2"/><rect x="281.073" y="181" width="11" height="15" fill="#1634c2"/><rect x="306.63" y="181" width="11" height="15" fill="#1634c2"/><rect x="332.187" y="181" width="11" height="15" fill="#1634c2"/><rect x="357.743" y="181" width="11" height="15" fill="#1634c2"/><rect x="383.3" y="181" width="11" height="15" fill="#e8ebf9"/><rect x="408.857" y="181" width="11" height="15" fill="#e8ebf9"/><rect x="434.413" y="181" width="11" height="15" fill="#e8ebf9"/><rect x="459.97" y="181" width="11" height="15" fill="#e8ebf9"/><rect x="485.527" y="181" width="11" height="15" fill="#e8ebf9"/><rect x="511.084" y="181" width="11" height="15" fill="#e8ebf9"/><rect x="536.64" y="181" width="11" height="15" fill="#1634c2"/><rect x="562.197" y="181" width="11" height="15" fill="#e8ebf9"/><rect x="587.754" y="181" width="11" height="15" fill="#1634c2"/><rect x="613.31" y="181" width="11" height="15" fill="#1634c2"/><rect x="638.867" y="181" width="11" height="15" fill="#1634c2"/><rect x="664.424" y="181" width="11" height="15" fill="#1634c2"/><rect x="689.98" y="181" width="11" height="15" fill="#1634c2"/><rect x="715.537" y="181" width="11" height="15" fill="#1634c2"/><rect x="741.094" y="181" width="11" height="15" fill="#1634c2"/><rect x="766.651" y="181" width="11" height="15" fill="#1634c2"/><rect x="792.207" y="181" width="11" height="15" fill="#1634c2"/><rect x="817.764" y="181" width="11" height="15" fill="#1634c2"/><rect x="843.321" y="181" width="11" height="15" fill="#1634c2"/><rect x="868.877" y="181" width="11" height="15" fill="#1634c2"/><text x="220.999" y="191.825" fill="#5b5480" font-size="9.5" text-anchor="end">ERR5008</text></g><g><title>ERR5009, 24 of 26 sites called</title><rect x="229.96" y="197" width="11" height="15" fill="#1634c2"/><rect x="255.517" y="197" width="11" height="15" fill="#1634c2"/><rect x="281.073" y="197" width="11" height="15" fill="#1634c2"/><rect x="306.63" y="197" width="11" height="15" fill="#1634c2"/><rect x="332.187" y="197" width="11" height="15" fill="#1634c2"/><rect x="357.743" y="197" width="11" height="15" fill="#1634c2"/><rect x="383.3" y="197" width="11" height="15" fill="#e8ebf9"/><rect x="408.857" y="197" width="11" height="15" fill="#e8ebf9"/><rect x="434.413" y="197" width="11" height="15" fill="#e8ebf9"/><rect x="459.97" y="197" width="11" height="15" fill="#f3f0fb"/><rect x="485.527" y="197" width="11" height="15" fill="#e8ebf9"/><rect x="511.084" y="197" width="11" height="15" fill="#e8ebf9"/><rect x="536.64" y="197" width="11" height="15" fill="#1634c2"/><rect x="562.197" y="197" width="11" height="15" fill="#1634c2"/><rect x="587.754" y="197" width="11" height="15" fill="#1634c2"/><rect x="613.31" y="197" width="11" height="15" fill="#1634c2"/><rect x="638.867" y="197" width="11" height="15" fill="#1634c2"/><rect x="664.424" y="197" width="11" height="15" fill="#1634c2"/><rect x="689.98" y="197" width="11" height="15" fill="#f3f0fb"/><rect x="715.537" y="197" width="11" height="15" fill="#1634c2"/><rect x="741.094" y="197" width="11" height="15" fill="#1634c2"/><rect x="766.651" y="197" width="11" height="15" fill="#1634c2"/><rect x="792.207" y="197" width="11" height="15" fill="#1634c2"/><rect x="817.764" y="197" width="11" height="15" fill="#1634c2"/><rect x="843.321" y="197" width="11" height="15" fill="#1634c2"/><rect x="868.877" y="197" width="11" height="15" fill="#1634c2"/><text x="220.999" y="207.825" fill="#5b5480" font-size="9.5" text-anchor="end">ERR5009</text></g></g><g clip-path="url(#karyon-clip-2)"><line x1="224.999" y1="224.5" x2="922" y2="224.5" stroke="#e4def5" stroke-width="1.2"/><line x1="341.154" y1="224.5" x2="341.154" y2="229.5" stroke="#adaac0" stroke-width="1.2"/><text x="341.154" y="241" fill="#5b5480" font-size="11.5" text-anchor="middle" font-family="JetBrains Mono, Liberation Mono, Menlo, Consolas, monospace">2.11 Mb</text><line x1="457.321" y1="224.5" x2="457.321" y2="229.5" stroke="#adaac0" stroke-width="1.2"/><text x="457.321" y="241" fill="#5b5480" font-size="11.5" text-anchor="middle" font-family="JetBrains Mono, Liberation Mono, Menlo, Consolas, monospace">2.12 Mb</text><line x1="573.488" y1="224.5" x2="573.488" y2="229.5" stroke="#adaac0" stroke-width="1.2"/><text x="573.488" y="241" fill="#5b5480" font-size="11.5" text-anchor="middle" font-family="JetBrains Mono, Liberation Mono, Menlo, Consolas, monospace">2.13 Mb</text><line x1="689.655" y1="224.5" x2="689.655" y2="229.5" stroke="#adaac0" stroke-width="1.2"/><text x="689.655" y="241" fill="#5b5480" font-size="11.5" text-anchor="middle" font-family="JetBrains Mono, Liberation Mono, Menlo, Consolas, monospace">2.14 Mb</text><line x1="805.822" y1="224.5" x2="805.822" y2="229.5" stroke="#adaac0" stroke-width="1.2"/><text x="805.822" y="241" fill="#5b5480" font-size="11.5" text-anchor="middle" font-family="JetBrains Mono, Liberation Mono, Menlo, Consolas, monospace">2.15 Mb</text><line x1="921.988" y1="224.5" x2="921.988" y2="229.5" stroke="#adaac0" stroke-width="1.2"/><text x="922" y="241" fill="#5b5480" font-size="11.5" text-anchor="end" font-family="JetBrains Mono, Liberation Mono, Menlo, Consolas, monospace">2.16 Mb</text></g></svg>