<svg xmlns="http://www.w3.org/2000/svg" width="880" height="330" viewBox="0 0 880 330" font-family="Inter, Liberation Sans, Arial, Helvetica, sans-serif" role="img" aria-labelledby="karyon-title karyon-desc"><title id="karyon-title">An IS6110 copy in a new place: three segments of one molecule, NC_000962.3:880001-920000</title><desc id="karyon-desc">A karyon figure over NC_000962.3:880001-920000, with 4 tracks, drawn top to bottom: reads, depth, donor and a ruler.</desc><defs><clipPath id="karyon-clip-0"><rect x="64" y="43" width="798" height="149"/></clipPath><clipPath id="karyon-clip-1"><rect x="90.52" y="204" width="771.48" height="48"/></clipPath><linearGradient id="karyon-fade-2" x1="0" y1="0" x2="0" y2="1"><stop offset="0" stop-color="#1634c2" stop-opacity="0.54"/><stop offset="1" stop-color="#1634c2" stop-opacity="0.03"/></linearGradient><clipPath id="karyon-clip-3"><rect x="117.609" y="264" width="744.391" height="14"/></clipPath><clipPath id="karyon-clip-4"><rect x="117.609" y="290" width="744.391" height="26"/></clipPath></defs><rect x="0" y="0" width="880" height="330" fill="#ffffff"/><text x="16" y="31" fill="#1a1233" font-size="17" text-anchor="start" font-weight="bold">An IS6110 copy in a new place: three segments of one molecule</text><text x="54" y="121.35" fill="#5b5480" font-size="11" text-anchor="end" font-weight="600" letter-spacing="0.03em">reads</text><g clip-path="url(#karyon-clip-0)"><path d="M 601.463 54 Q 456.074 60.46 310.685 54" fill="none" stroke="#0e227e" stroke-width="1.4"/><path d="M 285.469 43 Q 443.466 36.54 601.463 43" fill="none" stroke="#5b5480" stroke-width="1"/><g><title>read_01 segment 1 of 3, 904,478 to 906,000, forward</title><polygon points="573.12,43 592.96,43 601.463,48.5 592.96,54 573.12,54" fill="#8b9ae1"/></g><g><title>read_01 segment 2 of 3, 889,021 to 890,375, reverse</title><polygon points="310.685,43 293.034,43 285.469,48.5 293.034,54 310.685,54" fill="#586ed3"/></g><g><title>read_01 segment 3 of 3, 906,001 to 907,182, forward</title><polygon points="601.463,43 616.861,43 623.46,48.5 616.861,54 601.463,54" fill="#2b46c8"/></g><text x="113.609" y="52.525" fill="#5b5480" font-size="11.5" text-anchor="end">read_01</text><path d="M 601.463 72 Q 456.074 78.46 310.685 72" fill="none" stroke="#0e227e" stroke-width="1.4"/><path d="M 285.469 61 Q 443.466 54.54 601.463 61" fill="none" stroke="#5b5480" stroke-width="1"/><g><title>read_02 segment 1 of 3, 904,926 to 906,000, forward</title><polygon points="581.458,61 595.461,61 601.463,66.5 595.461,72 581.458,72" fill="#8f9ee2"/></g><g><title>read_02 segment 2 of 3, 889,021 to 890,375, reverse</title><polygon points="310.685,61 293.034,61 285.469,66.5 293.034,72 310.685,72" fill="#5a6fd4"/></g><g><title>read_02 segment 3 of 3, 906,001 to 906,889, forward</title><polygon points="601.463,61 613.044,61 618.007,66.5 613.044,72 601.463,72" fill="#2945c7"/></g><text x="113.609" y="70.525" fill="#5b5480" font-size="11.5" text-anchor="end">read_02</text><path d="M 601.463 90 Q 456.074 96.46 310.685 90" fill="none" stroke="#0e227e" stroke-width="1.4"/><path d="M 285.469 79 Q 443.466 72.54 601.463 79" fill="none" stroke="#5b5480" stroke-width="1"/><g><title>read_03 segment 1 of 3, 904,629 to 906,000, forward</title><polygon points="575.931,79 593.803,79 601.463,84.5 593.803,90 575.931,90" fill="#8c9ce1"/></g><g><title>read_03 segment 2 of 3, 889,021 to 890,375, reverse</title><polygon points="310.685,79 293.034,79 285.469,84.5 293.034,90 310.685,90" fill="#5a6fd4"/></g><g><title>read_03 segment 3 of 3, 906,001 to 907,142, forward</title><polygon points="601.463,79 616.34,79 622.716,84.5 616.34,90 601.463,90" fill="#2b47c8"/></g><text x="113.609" y="88.525" fill="#5b5480" font-size="11.5" text-anchor="end">read_03</text><path d="M 601.463 108 Q 456.074 114.46 310.685 108" fill="none" stroke="#0e227e" stroke-width="1.4"/><path d="M 285.469 97 Q 443.466 90.54 601.463 97" fill="none" stroke="#5b5480" stroke-width="1"/><g><title>read_04 segment 1 of 3, 904,848 to 906,000, forward</title><polygon points="580.006,97 595.026,97 601.463,102.5 595.026,108 580.006,108" fill="#92a1e3"/></g><g><title>read_04 segment 2 of 3, 889,021 to 890,375, reverse</title><polygon points="310.685,97 293.034,97 285.469,102.5 293.034,108 310.685,108" fill="#687cd8"/></g><g><title>read_04 segment 3 of 3, 906,001 to 907,734, forward</title><polygon points="601.463,97 624.932,97 633.732,102.5 624.932,108 601.463,108" fill="#334eca"/></g><text x="113.609" y="106.525" fill="#5b5480" font-size="11.5" text-anchor="end">read_04</text><path d="M 601.463 126 Q 456.074 132.46 310.685 126" fill="none" stroke="#0e227e" stroke-width="1.4"/><path d="M 285.469 115 Q 443.466 108.54 601.463 115" fill="none" stroke="#5b5480" stroke-width="1"/><g><title>read_05 segment 1 of 3, 904,733 to 906,000, forward</title><polygon points="577.866,115 594.384,115 601.463,120.5 594.384,126 577.866,126" fill="#8d9ce1"/></g><g><title>read_05 segment 2 of 3, 889,021 to 890,375, reverse</title><polygon points="310.685,115 293.034,115 285.469,120.5 293.034,126 310.685,126" fill="#596ed4"/></g><g><title>read_05 segment 3 of 3, 906,001 to 907,007, forward</title><polygon points="601.463,115 614.581,115 620.203,120.5 614.581,126 601.463,126" fill="#2a45c7"/></g><text x="113.609" y="124.525" fill="#5b5480" font-size="11.5" text-anchor="end">read_05</text><path d="M 601.463 144 Q 456.074 150.46 310.685 144" fill="none" stroke="#0e227e" stroke-width="1.4"/><path d="M 285.469 133 Q 443.466 126.54 601.463 133" fill="none" stroke="#5b5480" stroke-width="1"/><g><title>read_06 segment 1 of 3, 904,457 to 906,000, forward</title><polygon points="572.73,133 592.843,133 601.463,138.5 592.843,144 572.73,144" fill="#8898e0"/></g><g><title>read_06 segment 2 of 3, 889,021 to 890,375, reverse</title><polygon points="310.685,133 293.034,133 285.469,138.5 293.034,144 310.685,144" fill="#5168d2"/></g><g><title>read_06 segment 3 of 3, 906,001 to 906,863, forward</title><polygon points="601.463,133 612.705,133 617.523,138.5 612.705,144 601.463,144" fill="#2742c6"/></g><text x="113.609" y="142.525" fill="#5b5480" font-size="11.5" text-anchor="end">read_06</text><path d="M 601.463 162 Q 456.074 168.46 310.685 162" fill="none" stroke="#0e227e" stroke-width="1.4"/><path d="M 285.469 151 Q 443.466 144.54 601.463 151" fill="none" stroke="#5b5480" stroke-width="1"/><g><title>read_07 segment 1 of 3, 904,692 to 906,000, forward</title><polygon points="577.103,151 594.155,151 601.463,156.5 594.155,162 577.103,162" fill="#8f9ee2"/></g><g><title>read_07 segment 2 of 3, 889,021 to 890,375, reverse</title><polygon points="310.685,151 293.034,151 285.469,156.5 293.034,162 310.685,162" fill="#6175d6"/></g><g><title>read_07 segment 3 of 3, 906,001 to 907,460, forward</title><polygon points="601.463,151 620.482,151 628.633,156.5 620.482,162 601.463,162" fill="#2f4ac9"/></g><text x="113.609" y="160.525" fill="#5b5480" font-size="11.5" text-anchor="end">read_07</text><path d="M 601.463 180 Q 456.074 186.46 310.685 180" fill="none" stroke="#0e227e" stroke-width="1.4"/><path d="M 285.469 169 Q 443.466 162.54 601.463 169" fill="none" stroke="#5b5480" stroke-width="1"/><g><title>read_08 segment 1 of 3, 904,470 to 906,000, forward</title><polygon points="572.972,169 592.916,169 601.463,174.5 592.916,180 572.972,180" fill="#8c9be1"/></g><g><title>read_08 segment 2 of 3, 889,021 to 890,375, reverse</title><polygon points="310.685,169 293.034,169 285.469,174.5 293.034,180 310.685,180" fill="#5a6fd4"/></g><g><title>read_08 segment 3 of 3, 906,001 to 907,281, forward</title><polygon points="601.463,169 618.151,169 625.302,174.5 618.151,180 601.463,180" fill="#2c47c8"/></g><text x="113.609" y="178.525" fill="#5b5480" font-size="11.5" text-anchor="end">read_08</text></g><text x="54" y="231.85" fill="#5b5480" font-size="11" text-anchor="end" font-weight="600" letter-spacing="0.03em">depth</text><g clip-path="url(#karyon-clip-1)"><line x1="117.609" y1="251.5" x2="862" y2="251.5" stroke="#e4def5" stroke-width="0.8"/><path d="M117.609 252 L117.609 230.44 L118.609 230.56 L119.609 230.48 L120.609 230.52 L121.609 230.44 L122.609 230.44 L123.609 230.52 L124.609 230.48 L125.609 230.44 L126.609 230.56 L127.609 230.48 L128.609 230.6 L129.609 230.44 L130.609 230.44 L131.609 230.44 L132.609 230.44 L133.609 230.44 L134.609 230.44 L135.609 230.44 L136.609 230.44 L137.609 230.44 L138.609 230.48 L139.609 230.48 L140.609 230.44 L141.609 230.44 L142.609 230.44 L143.609 230.44 L144.609 230.44 L145.609 230.44 L146.609 230.44 L147.609 230.48 L148.609 230.44 L149.609 230.44 L150.609 230.52 L151.609 230.44 L152.609 230.44 L153.609 230.52 L154.609 230.52 L155.609 230.6 L156.609 230.44 L157.609 230.44 L158.609 230.44 L159.609 230.48 L160.609 230.44 L161.609 230.44 L162.609 230.48 L163.609 230.44 L164.609 230.52 L165.609 230.44 L166.609 230.44 L167.609 230.48 L168.609 230.44 L169.609 230.44 L170.609 230.48 L171.609 230.44 L172.609 230.48 L173.609 230.44 L174.609 230.44 L175.609 230.44 L176.609 230.52 L177.609 230.48 L178.609 230.56 L179.609 230.44 L180.609 230.44 L181.609 230.44 L182.609 230.48 L183.609 230.48 L184.609 230.44 L185.609 230.44 L186.609 230.48 L187.609 230.52 L188.609 230.56 L189.609 230.44 L190.609 230.48 L191.609 230.44 L192.609 230.44 L193.609 230.48 L194.609 230.48 L195.609 230.44 L196.609 230.48 L197.609 230.44 L198.609 230.44 L199.609 230.44 L200.609 230.44 L201.609 230.64 L202.609 230.44 L203.609 230.44 L204.609 230.44 L205.609 230.44 L206.609 230.48 L207.609 230.48 L208.609 230.44 L209.609 230.44 L210.609 230.52 L211.609 230.48 L212.609 230.44 L213.609 230.48 L214.609 230.56 L215.609 230.44 L216.609 230.48 L217.609 230.44 L218.609 230.48 L219.609 230.48 L220.609 230.44 L221.609 230.44 L222.609 230.44 L223.609 230.48 L224.609 230.44 L225.609 230.48 L226.609 230.48 L227.609 230.48 L228.609 230.48 L229.609 230.44 L230.609 230.52 L231.609 230.52 L232.609 230.44 L233.609 230.52 L234.609 230.44 L235.609 230.48 L236.609 230.48 L237.609 230.44 L238.609 230.44 L239.609 230.48 L240.609 230.6 L241.609 230.44 L242.609 230.48 L243.609 230.44 L244.609 230.48 L245.609 230.44 L246.609 230.48 L247.609 230.44 L248.609 230.48 L249.609 230.48 L250.609 230.44 L251.609 230.52 L252.609 230.48 L253.609 230.48 L254.609 230.48 L255.609 230.52 L256.609 230.44 L257.609 230.44 L258.609 230.44 L259.609 230.44 L260.609 230.44 L261.609 230.48 L262.609 230.48 L263.609 230.44 L264.609 230.44 L265.609 230.48 L266.609 230.44 L267.609 230.44 L268.609 230.52 L269.609 230.44 L270.609 230.48 L271.609 230.48 L272.609 230.48 L273.609 230.44 L274.609 230.44 L275.609 230.44 L276.609 230.48 L277.609 230.44 L278.609 230.6 L279.609 230.44 L280.609 230.44 L281.609 230.44 L282.609 230.48 L283.609 230.44 L284.609 211.24 L285.609 211.32 L286.609 211.24 L287.609 211.28 L288.609 211.24 L289.609 211.36 L290.609 211.24 L291.609 211.24 L292.609 211.24 L293.609 211.24 L294.609 211.32 L295.609 211.28 L296.609 211.28 L297.609 211.24 L298.609 211.24 L299.609 211.24 L300.609 211.24 L301.609 211.24 L302.609 211.32 L303.609 211.24 L304.609 211.28 L305.609 211.24 L306.609 211.24 L307.609 211.32 L308.609 211.24 L309.609 211.24 L310.609 211.24 L311.609 230.52 L312.609 230.48 L313.609 230.44 L314.609 230.44 L315.609 230.44 L316.609 230.44 L317.609 230.56 L318.609 230.52 L319.609 230.44 L320.609 230.52 L321.609 230.44 L322.609 230.48 L323.609 230.6 L324.609 230.44 L325.609 230.44 L326.609 230.44 L327.609 230.44 L328.609 230.44 L329.609 230.52 L330.609 230.44 L331.609 230.52 L332.609 230.44 L333.609 230.44 L334.609 230.44 L335.609 230.48 L336.609 230.48 L337.609 230.44 L338.609 230.44 L339.609 230.44 L340.609 230.48 L341.609 230.44 L342.609 230.56 L343.609 230.48 L344.609 230.48 L345.609 230.52 L346.609 230.44 L347.609 230.44 L348.609 230.44 L349.609 230.48 L350.609 230.44 L351.609 230.44 L352.609 230.44 L353.609 230.44 L354.609 230.48 L355.609 230.44 L356.609 230.44 L357.609 230.44 L358.609 230.6 L359.609 230.44 L360.609 230.44 L361.609 230.48 L362.609 230.44 L363.609 230.44 L364.609 230.44 L365.609 230.44 L366.609 230.44 L367.609 230.48 L368.609 230.44 L369.609 230.44 L370.609 230.6 L371.609 230.52 L372.609 230.44 L373.609 230.48 L374.609 230.52 L375.609 230.44 L376.609 230.44 L377.609 230.56 L378.609 230.44 L379.609 230.44 L380.609 230.48 L381.609 230.44 L382.609 230.48 L383.609 230.56 L384.609 230.44 L385.609 230.52 L386.609 230.44 L387.609 230.48 L388.609 230.44 L389.609 230.44 L390.609 230.44 L391.609 230.44 L392.609 230.6 L393.609 230.44 L394.609 230.48 L395.609 230.48 L396.609 230.48 L397.609 230.44 L398.609 230.44 L399.609 230.44 L400.609 230.44 L401.609 230.44 L402.609 230.44 L403.609 230.44 L404.609 230.44 L405.609 230.44 L406.609 230.48 L407.609 230.44 L408.609 230.44 L409.609 230.44 L410.609 230.44 L411.609 230.48 L412.609 230.56 L413.609 230.44 L414.609 230.44 L415.609 230.48 L416.609 230.44 L417.609 230.44 L418.609 230.52 L419.609 230.44 L420.609 230.44 L421.609 230.44 L422.609 230.52 L423.609 230.44 L424.609 230.44 L425.609 230.44 L426.609 230.44 L427.609 230.44 L428.609 230.44 L429.609 230.44 L430.609 230.44 L431.609 230.48 L432.609 230.44 L433.609 230.44 L434.609 230.44 L435.609 230.44 L436.609 230.44 L437.609 230.44 L438.609 230.44 L439.609 230.44 L440.609 230.48 L441.609 230.48 L442.609 230.52 L443.609 230.56 L444.609 230.44 L445.609 230.44 L446.609 230.48 L447.609 230.44 L448.609 230.44 L449.609 230.44 L450.609 230.48 L451.609 230.44 L452.609 230.48 L453.609 230.44 L454.609 230.48 L455.609 230.44 L456.609 230.48 L457.609 230.44 L458.609 230.44 L459.609 230.44 L460.609 230.48 L461.609 230.44 L462.609 230.44 L463.609 230.44 L464.609 230.48 L465.609 230.48 L466.609 230.44 L467.609 230.44 L468.609 230.44 L469.609 230.52 L470.609 230.44 L471.609 230.52 L472.609 230.44 L473.609 230.48 L474.609 230.44 L475.609 230.48 L476.609 230.44 L477.609 230.44 L478.609 230.44 L479.609 230.44 L480.609 230.52 L481.609 230.44 L482.609 230.44 L483.609 230.44 L484.609 230.44 L485.609 230.48 L486.609 230.44 L487.609 230.48 L488.609 230.52 L489.609 230.44 L490.609 230.44 L491.609 230.44 L492.609 230.52 L493.609 230.44 L494.609 230.44 L495.609 230.44 L496.609 230.44 L497.609 230.44 L498.609 230.44 L499.609 230.48 L500.609 230.44 L501.609 230.44 L502.609 230.44 L503.609 230.44 L504.609 230.48 L505.609 230.48 L506.609 230.48 L507.609 230.44 L508.609 230.44 L509.609 230.44 L510.609 230.48 L511.609 230.48 L512.609 230.48 L513.609 230.48 L514.609 230.48 L515.609 230.44 L516.609 230.44 L517.609 230.52 L518.609 230.6 L519.609 230.44 L520.609 230.56 L521.609 230.52 L522.609 230.44 L523.609 230.48 L524.609 230.48 L525.609 230.44 L526.609 230.48 L527.609 230.44 L528.609 230.52 L529.609 230.44 L530.609 230.44 L531.609 230.44 L532.609 230.52 L533.609 230.44 L534.609 230.44 L535.609 230.48 L536.609 230.44 L537.609 230.56 L538.609 230.48 L539.609 230.52 L540.609 230.52 L541.609 230.44 L542.609 230.48 L543.609 230.48 L544.609 230.44 L545.609 230.48 L546.609 230.56 L547.609 230.44 L548.609 230.64 L549.609 230.44 L550.609 230.48 L551.609 230.44 L552.609 230.48 L553.609 230.44 L554.609 230.44 L555.609 230.48 L556.609 230.48 L557.609 230.44 L558.609 230.48 L559.609 230.44 L560.609 230.44 L561.609 230.48 L562.609 230.48 L563.609 230.44 L564.609 230.44 L565.609 230.44 L566.609 230.44 L567.609 230.56 L568.609 230.52 L569.609 230.64 L570.609 230.48 L571.609 230.6 L572.609 230.44 L573.609 230.48 L574.609 230.44 L575.609 230.56 L576.609 230.6 L577.609 230.44 L578.609 230.44 L579.609 230.48 L580.609 230.44 L581.609 230.44 L582.609 230.48 L583.609 230.48 L584.609 230.44 L585.609 230.44 L586.609 230.52 L587.609 230.48 L588.609 230.44 L589.609 230.44 L590.609 230.44 L591.609 230.52 L592.609 230.44 L593.609 230.48 L594.609 230.44 L595.609 230.44 L596.609 230.44 L597.609 230.44 L598.609 230.44 L599.609 230.44 L600.609 230.52 L601.609 230.56 L602.609 230.44 L603.609 230.44 L604.609 230.52 L605.609 230.48 L606.609 230.52 L607.609 230.44 L608.609 230.44 L609.609 230.44 L610.609 230.44 L611.609 230.44 L612.609 230.44 L613.609 230.44 L614.609 230.44 L615.609 230.44 L616.609 230.44 L617.609 230.44 L618.609 230.44 L619.609 230.44 L620.609 230.44 L621.609 230.56 L622.609 230.44 L623.609 230.44 L624.609 230.44 L625.609 230.44 L626.609 230.44 L627.609 230.44 L628.609 230.44 L629.609 230.44 L630.609 230.44 L631.609 230.48 L632.609 230.44 L633.609 230.48 L634.609 230.48 L635.609 230.44 L636.609 230.44 L637.609 230.44 L638.609 230.44 L639.609 230.44 L640.609 230.48 L641.609 230.44 L642.609 230.48 L643.609 230.44 L644.609 230.44 L645.609 230.48 L646.609 230.48 L647.609 230.52 L648.609 230.48 L649.609 230.44 L650.609 230.48 L651.609 230.44 L652.609 230.64 L653.609 230.44 L654.609 230.48 L655.609 230.48 L656.609 230.44 L657.609 230.48 L658.609 230.44 L659.609 230.44 L660.609 230.44 L661.609 230.44 L662.609 230.56 L663.609 230.44 L664.609 230.44 L665.609 230.48 L666.609 230.44 L667.609 230.48 L668.609 230.44 L669.609 230.6 L670.609 230.44 L671.609 230.44 L672.609 230.44 L673.609 230.52 L674.609 230.44 L675.609 230.44 L676.609 230.48 L677.609 230.44 L678.609 230.48 L679.609 230.44 L680.609 230.44 L681.609 230.44 L682.609 230.44 L683.609 230.44 L684.609 230.52 L685.609 230.44 L686.609 230.48 L687.609 230.48 L688.609 230.48 L689.609 230.44 L690.609 230.48 L691.609 230.52 L692.609 230.44 L693.609 230.44 L694.609 230.52 L695.609 230.44 L696.609 230.44 L697.609 230.44 L698.609 230.44 L699.609 230.56 L700.609 230.44 L701.609 230.48 L702.609 230.44 L703.609 230.44 L704.609 230.52 L705.609 230.48 L706.609 230.48 L707.609 230.48 L708.609 230.44 L709.609 230.44 L710.609 230.44 L711.609 230.44 L712.609 230.56 L713.609 230.44 L714.609 230.52 L715.609 230.44 L716.609 230.48 L717.609 230.44 L718.609 230.44 L719.609 230.44 L720.609 230.52 L721.609 230.44 L722.609 230.44 L723.609 230.48 L724.609 230.52 L725.609 230.44 L726.609 230.44 L727.609 230.44 L728.609 230.44 L729.609 230.44 L730.609 230.44 L731.609 230.44 L732.609 230.52 L733.609 230.52 L734.609 230.44 L735.609 230.56 L736.609 230.44 L737.609 230.44 L738.609 230.52 L739.609 230.76 L740.609 230.44 L741.609 230.44 L742.609 230.56 L743.609 230.52 L744.609 230.48 L745.609 230.48 L746.609 230.44 L747.609 230.44 L748.609 230.48 L749.609 230.44 L750.609 230.44 L751.609 230.44 L752.609 230.48 L753.609 230.44 L754.609 230.52 L755.609 230.48 L756.609 230.44 L757.609 230.48 L758.609 230.6 L759.609 230.44 L760.609 230.48 L761.609 230.56 L762.609 230.48 L763.609 230.44 L764.609 230.48 L765.609 230.44 L766.609 230.44 L767.609 230.48 L768.609 230.44 L769.609 230.48 L770.609 230.48 L771.609 230.52 L772.609 230.44 L773.609 230.52 L774.609 230.48 L775.609 230.44 L776.609 230.44 L777.609 230.44 L778.609 230.44 L779.609 230.48 L780.609 230.44 L781.609 230.44 L782.609 230.44 L783.609 230.44 L784.609 230.48 L785.609 230.56 L786.609 230.48 L787.609 230.44 L788.609 230.44 L789.609 230.44 L790.609 230.48 L791.609 230.44 L792.609 230.44 L793.609 230.48 L794.609 230.52 L795.609 230.44 L796.609 230.44 L797.609 230.48 L798.609 230.44 L799.609 230.48 L800.609 230.44 L801.609 230.44 L802.609 230.48 L803.609 230.44 L804.609 230.44 L805.609 230.44 L806.609 230.44 L807.609 230.52 L808.609 230.48 L809.609 230.44 L810.609 230.44 L811.609 230.48 L812.609 230.44 L813.609 230.48 L814.609 230.48 L815.609 230.48 L816.609 230.48 L817.609 230.44 L818.609 230.52 L819.609 230.44 L820.609 230.48 L821.609 230.44 L822.609 230.44 L823.609 230.44 L824.609 230.44 L825.609 230.44 L826.609 230.48 L827.609 230.44 L828.609 230.56 L829.609 230.56 L830.609 230.44 L831.609 230.52 L832.609 230.44 L833.609 230.44 L834.609 230.44 L835.609 230.44 L836.609 230.48 L837.609 230.44 L838.609 230.52 L839.609 230.44 L840.609 230.44 L841.609 230.44 L842.609 230.48 L843.609 230.44 L844.609 230.44 L845.609 230.44 L846.609 230.48 L847.609 230.52 L848.609 230.48 L849.609 230.48 L850.609 230.44 L851.609 230.44 L852.609 230.44 L853.609 230.44 L854.609 230.44 L855.609 230.44 L856.609 230.44 L857.609 230.44 L858.609 230.44 L859.609 230.44 L860.609 230.44 L861.609 230.44 L861.609 252Z" fill="url(#karyon-fade-2)"/><polyline points="117.609,230.44 118.609,230.56 119.609,230.48 120.609,230.52 121.609,230.44 122.609,230.44 123.609,230.52 124.609,230.48 125.609,230.44 126.609,230.56 127.609,230.48 128.609,230.6 129.609,230.44 130.609,230.44 131.609,230.44 132.609,230.44 133.609,230.44 134.609,230.44 135.609,230.44 136.609,230.44 137.609,230.44 138.609,230.48 139.609,230.48 140.609,230.44 141.609,230.44 142.609,230.44 143.609,230.44 144.609,230.44 145.609,230.44 146.609,230.44 147.609,230.48 148.609,230.44 149.609,230.44 150.609,230.52 151.609,230.44 152.609,230.44 153.609,230.52 154.609,230.52 155.609,230.6 156.609,230.44 157.609,230.44 158.609,230.44 159.609,230.48 160.609,230.44 161.609,230.44 162.609,230.48 163.609,230.44 164.609,230.52 165.609,230.44 166.609,230.44 167.609,230.48 168.609,230.44 169.609,230.44 170.609,230.48 171.609,230.44 172.609,230.48 173.609,230.44 174.609,230.44 175.609,230.44 176.609,230.52 177.609,230.48 178.609,230.56 179.609,230.44 180.609,230.44 181.609,230.44 182.609,230.48 183.609,230.48 184.609,230.44 185.609,230.44 186.609,230.48 187.609,230.52 188.609,230.56 189.609,230.44 190.609,230.48 191.609,230.44 192.609,230.44 193.609,230.48 194.609,230.48 195.609,230.44 196.609,230.48 197.609,230.44 198.609,230.44 199.609,230.44 200.609,230.44 201.609,230.64 202.609,230.44 203.609,230.44 204.609,230.44 205.609,230.44 206.609,230.48 207.609,230.48 208.609,230.44 209.609,230.44 210.609,230.52 211.609,230.48 212.609,230.44 213.609,230.48 214.609,230.56 215.609,230.44 216.609,230.48 217.609,230.44 218.609,230.48 219.609,230.48 220.609,230.44 221.609,230.44 222.609,230.44 223.609,230.48 224.609,230.44 225.609,230.48 226.609,230.48 227.609,230.48 228.609,230.48 229.609,230.44 230.609,230.52 231.609,230.52 232.609,230.44 233.609,230.52 234.609,230.44 235.609,230.48 236.609,230.48 237.609,230.44 238.609,230.44 239.609,230.48 240.609,230.6 241.609,230.44 242.609,230.48 243.609,230.44 244.609,230.48 245.609,230.44 246.609,230.48 247.609,230.44 248.609,230.48 249.609,230.48 250.609,230.44 251.609,230.52 252.609,230.48 253.609,230.48 254.609,230.48 255.609,230.52 256.609,230.44 257.609,230.44 258.609,230.44 259.609,230.44 260.609,230.44 261.609,230.48 262.609,230.48 263.609,230.44 264.609,230.44 265.609,230.48 266.609,230.44 267.609,230.44 268.609,230.52 269.609,230.44 270.609,230.48 271.609,230.48 272.609,230.48 273.609,230.44 274.609,230.44 275.609,230.44 276.609,230.48 277.609,230.44 278.609,230.6 279.609,230.44 280.609,230.44 281.609,230.44 282.609,230.48 283.609,230.44 284.609,211.24 285.609,211.32 286.609,211.24 287.609,211.28 288.609,211.24 289.609,211.36 290.609,211.24 291.609,211.24 292.609,211.24 293.609,211.24 294.609,211.32 295.609,211.28 296.609,211.28 297.609,211.24 298.609,211.24 299.609,211.24 300.609,211.24 301.609,211.24 302.609,211.32 303.609,211.24 304.609,211.28 305.609,211.24 306.609,211.24 307.609,211.32 308.609,211.24 309.609,211.24 310.609,211.24 311.609,230.52 312.609,230.48 313.609,230.44 314.609,230.44 315.609,230.44 316.609,230.44 317.609,230.56 318.609,230.52 319.609,230.44 320.609,230.52 321.609,230.44 322.609,230.48 323.609,230.6 324.609,230.44 325.609,230.44 326.609,230.44 327.609,230.44 328.609,230.44 329.609,230.52 330.609,230.44 331.609,230.52 332.609,230.44 333.609,230.44 334.609,230.44 335.609,230.48 336.609,230.48 337.609,230.44 338.609,230.44 339.609,230.44 340.609,230.48 341.609,230.44 342.609,230.56 343.609,230.48 344.609,230.48 345.609,230.52 346.609,230.44 347.609,230.44 348.609,230.44 349.609,230.48 350.609,230.44 351.609,230.44 352.609,230.44 353.609,230.44 354.609,230.48 355.609,230.44 356.609,230.44 357.609,230.44 358.609,230.6 359.609,230.44 360.609,230.44 361.609,230.48 362.609,230.44 363.609,230.44 364.609,230.44 365.609,230.44 366.609,230.44 367.609,230.48 368.609,230.44 369.609,230.44 370.609,230.6 371.609,230.52 372.609,230.44 373.609,230.48 374.609,230.52 375.609,230.44 376.609,230.44 377.609,230.56 378.609,230.44 379.609,230.44 380.609,230.48 381.609,230.44 382.609,230.48 383.609,230.56 384.609,230.44 385.609,230.52 386.609,230.44 387.609,230.48 388.609,230.44 389.609,230.44 390.609,230.44 391.609,230.44 392.609,230.6 393.609,230.44 394.609,230.48 395.609,230.48 396.609,230.48 397.609,230.44 398.609,230.44 399.609,230.44 400.609,230.44 401.609,230.44 402.609,230.44 403.609,230.44 404.609,230.44 405.609,230.44 406.609,230.48 407.609,230.44 408.609,230.44 409.609,230.44 410.609,230.44 411.609,230.48 412.609,230.56 413.609,230.44 414.609,230.44 415.609,230.48 416.609,230.44 417.609,230.44 418.609,230.52 419.609,230.44 420.609,230.44 421.609,230.44 422.609,230.52 423.609,230.44 424.609,230.44 425.609,230.44 426.609,230.44 427.609,230.44 428.609,230.44 429.609,230.44 430.609,230.44 431.609,230.48 432.609,230.44 433.609,230.44 434.609,230.44 435.609,230.44 436.609,230.44 437.609,230.44 438.609,230.44 439.609,230.44 440.609,230.48 441.609,230.48 442.609,230.52 443.609,230.56 444.609,230.44 445.609,230.44 446.609,230.48 447.609,230.44 448.609,230.44 449.609,230.44 450.609,230.48 451.609,230.44 452.609,230.48 453.609,230.44 454.609,230.48 455.609,230.44 456.609,230.48 457.609,230.44 458.609,230.44 459.609,230.44 460.609,230.48 461.609,230.44 462.609,230.44 463.609,230.44 464.609,230.48 465.609,230.48 466.609,230.44 467.609,230.44 468.609,230.44 469.609,230.52 470.609,230.44 471.609,230.52 472.609,230.44 473.609,230.48 474.609,230.44 475.609,230.48 476.609,230.44 477.609,230.44 478.609,230.44 479.609,230.44 480.609,230.52 481.609,230.44 482.609,230.44 483.609,230.44 484.609,230.44 485.609,230.48 486.609,230.44 487.609,230.48 488.609,230.52 489.609,230.44 490.609,230.44 491.609,230.44 492.609,230.52 493.609,230.44 494.609,230.44 495.609,230.44 496.609,230.44 497.609,230.44 498.609,230.44 499.609,230.48 500.609,230.44 501.609,230.44 502.609,230.44 503.609,230.44 504.609,230.48 505.609,230.48 506.609,230.48 507.609,230.44 508.609,230.44 509.609,230.44 510.609,230.48 511.609,230.48 512.609,230.48 513.609,230.48 514.609,230.48 515.609,230.44 516.609,230.44 517.609,230.52 518.609,230.6 519.609,230.44 520.609,230.56 521.609,230.52 522.609,230.44 523.609,230.48 524.609,230.48 525.609,230.44 526.609,230.48 527.609,230.44 528.609,230.52 529.609,230.44 530.609,230.44 531.609,230.44 532.609,230.52 533.609,230.44 534.609,230.44 535.609,230.48 536.609,230.44 537.609,230.56 538.609,230.48 539.609,230.52 540.609,230.52 541.609,230.44 542.609,230.48 543.609,230.48 544.609,230.44 545.609,230.48 546.609,230.56 547.609,230.44 548.609,230.64 549.609,230.44 550.609,230.48 551.609,230.44 552.609,230.48 553.609,230.44 554.609,230.44 555.609,230.48 556.609,230.48 557.609,230.44 558.609,230.48 559.609,230.44 560.609,230.44 561.609,230.48 562.609,230.48 563.609,230.44 564.609,230.44 565.609,230.44 566.609,230.44 567.609,230.56 568.609,230.52 569.609,230.64 570.609,230.48 571.609,230.6 572.609,230.44 573.609,230.48 574.609,230.44 575.609,230.56 576.609,230.6 577.609,230.44 578.609,230.44 579.609,230.48 580.609,230.44 581.609,230.44 582.609,230.48 583.609,230.48 584.609,230.44 585.609,230.44 586.609,230.52 587.609,230.48 588.609,230.44 589.609,230.44 590.609,230.44 591.609,230.52 592.609,230.44 593.609,230.48 594.609,230.44 595.609,230.44 596.609,230.44 597.609,230.44 598.609,230.44 599.609,230.44 600.609,230.52 601.609,230.56 602.609,230.44 603.609,230.44 604.609,230.52 605.609,230.48 606.609,230.52 607.609,230.44 608.609,230.44 609.609,230.44 610.609,230.44 611.609,230.44 612.609,230.44 613.609,230.44 614.609,230.44 615.609,230.44 616.609,230.44 617.609,230.44 618.609,230.44 619.609,230.44 620.609,230.44 621.609,230.56 622.609,230.44 623.609,230.44 624.609,230.44 625.609,230.44 626.609,230.44 627.609,230.44 628.609,230.44 629.609,230.44 630.609,230.44 631.609,230.48 632.609,230.44 633.609,230.48 634.609,230.48 635.609,230.44 636.609,230.44 637.609,230.44 638.609,230.44 639.609,230.44 640.609,230.48 641.609,230.44 642.609,230.48 643.609,230.44 644.609,230.44 645.609,230.48 646.609,230.48 647.609,230.52 648.609,230.48 649.609,230.44 650.609,230.48 651.609,230.44 652.609,230.64 653.609,230.44 654.609,230.48 655.609,230.48 656.609,230.44 657.609,230.48 658.609,230.44 659.609,230.44 660.609,230.44 661.609,230.44 662.609,230.56 663.609,230.44 664.609,230.44 665.609,230.48 666.609,230.44 667.609,230.48 668.609,230.44 669.609,230.6 670.609,230.44 671.609,230.44 672.609,230.44 673.609,230.52 674.609,230.44 675.609,230.44 676.609,230.48 677.609,230.44 678.609,230.48 679.609,230.44 680.609,230.44 681.609,230.44 682.609,230.44 683.609,230.44 684.609,230.52 685.609,230.44 686.609,230.48 687.609,230.48 688.609,230.48 689.609,230.44 690.609,230.48 691.609,230.52 692.609,230.44 693.609,230.44 694.609,230.52 695.609,230.44 696.609,230.44 697.609,230.44 698.609,230.44 699.609,230.56 700.609,230.44 701.609,230.48 702.609,230.44 703.609,230.44 704.609,230.52 705.609,230.48 706.609,230.48 707.609,230.48 708.609,230.44 709.609,230.44 710.609,230.44 711.609,230.44 712.609,230.56 713.609,230.44 714.609,230.52 715.609,230.44 716.609,230.48 717.609,230.44 718.609,230.44 719.609,230.44 720.609,230.52 721.609,230.44 722.609,230.44 723.609,230.48 724.609,230.52 725.609,230.44 726.609,230.44 727.609,230.44 728.609,230.44 729.609,230.44 730.609,230.44 731.609,230.44 732.609,230.52 733.609,230.52 734.609,230.44 735.609,230.56 736.609,230.44 737.609,230.44 738.609,230.52 739.609,230.76 740.609,230.44 741.609,230.44 742.609,230.56 743.609,230.52 744.609,230.48 745.609,230.48 746.609,230.44 747.609,230.44 748.609,230.48 749.609,230.44 750.609,230.44 751.609,230.44 752.609,230.48 753.609,230.44 754.609,230.52 755.609,230.48 756.609,230.44 757.609,230.48 758.609,230.6 759.609,230.44 760.609,230.48 761.609,230.56 762.609,230.48 763.609,230.44 764.609,230.48 765.609,230.44 766.609,230.44 767.609,230.48 768.609,230.44 769.609,230.48 770.609,230.48 771.609,230.52 772.609,230.44 773.609,230.52 774.609,230.48 775.609,230.44 776.609,230.44 777.609,230.44 778.609,230.44 779.609,230.48 780.609,230.44 781.609,230.44 782.609,230.44 783.609,230.44 784.609,230.48 785.609,230.56 786.609,230.48 787.609,230.44 788.609,230.44 789.609,230.44 790.609,230.48 791.609,230.44 792.609,230.44 793.609,230.48 794.609,230.52 795.609,230.44 796.609,230.44 797.609,230.48 798.609,230.44 799.609,230.48 800.609,230.44 801.609,230.44 802.609,230.48 803.609,230.44 804.609,230.44 805.609,230.44 806.609,230.44 807.609,230.52 808.609,230.48 809.609,230.44 810.609,230.44 811.609,230.48 812.609,230.44 813.609,230.48 814.609,230.48 815.609,230.48 816.609,230.48 817.609,230.44 818.609,230.52 819.609,230.44 820.609,230.48 821.609,230.44 822.609,230.44 823.609,230.44 824.609,230.44 825.609,230.44 826.609,230.48 827.609,230.44 828.609,230.56 829.609,230.56 830.609,230.44 831.609,230.52 832.609,230.44 833.609,230.44 834.609,230.44 835.609,230.44 836.609,230.48 837.609,230.44 838.609,230.52 839.609,230.44 840.609,230.44 841.609,230.44 842.609,230.48 843.609,230.44 844.609,230.44 845.609,230.44 846.609,230.48 847.609,230.52 848.609,230.48 849.609,230.48 850.609,230.44 851.609,230.44 852.609,230.44 853.609,230.44 854.609,230.44 855.609,230.44 856.609,230.44 857.609,230.44 858.609,230.44 859.609,230.44 860.609,230.44 861.609,230.44" fill="none" stroke="#1634c2" stroke-width="1.5" stroke-linejoin="round"/><line x1="117.609" y1="232" x2="862" y2="232" stroke="#e4def5" stroke-width="0.8"/><line x1="117.609" y1="212" x2="862" y2="212" stroke="#e4def5" stroke-width="0.8"/><text x="113.609" y="252" fill="#5b5480" font-size="10.5" text-anchor="end">0</text><text x="113.609" y="235.675" fill="#5b5480" font-size="10.5" text-anchor="end">50</text><text x="113.609" y="215.675" fill="#5b5480" font-size="10.5" text-anchor="end">100</text></g><text x="54" y="274.85" fill="#5b5480" font-size="11" text-anchor="end" font-weight="600" letter-spacing="0.03em">donor</text><g clip-path="url(#karyon-clip-3)"><g><title>IS6110, 889,021 to 890,375, forward</title><polygon points="285.869,264.4 302.285,264.4 310.285,271 302.285,277.6 285.869,277.6" fill="#a6b2e8" stroke="#1634c2" stroke-width="0.8" stroke-linejoin="round"/><text x="313.685" y="275.025" fill="#1a1233" font-size="11.5" text-anchor="start">IS6110</text></g></g><g clip-path="url(#karyon-clip-4)"><line x1="117.609" y1="290.5" x2="862" y2="290.5" stroke="#e4def5" stroke-width="1.2"/><line x1="210.639" y1="290.5" x2="210.639" y2="295.5" stroke="#adaac0" stroke-width="1.2"/><text x="210.639" y="307" fill="#5b5480" font-size="11.5" text-anchor="middle" font-family="JetBrains Mono, Liberation Mono, Menlo, Consolas, monospace">885 kb</text><line x1="303.688" y1="290.5" x2="303.688" y2="295.5" stroke="#adaac0" stroke-width="1.2"/><text x="303.688" y="307" fill="#5b5480" font-size="11.5" text-anchor="middle" font-family="JetBrains Mono, Liberation Mono, Menlo, Consolas, monospace">890 kb</text><line x1="396.737" y1="290.5" x2="396.737" y2="295.5" stroke="#adaac0" stroke-width="1.2"/><text x="396.737" y="307" fill="#5b5480" font-size="11.5" text-anchor="middle" font-family="JetBrains Mono, Liberation Mono, Menlo, Consolas, monospace">895 kb</text><line x1="489.786" y1="290.5" x2="489.786" y2="295.5" stroke="#adaac0" stroke-width="1.2"/><text x="489.786" y="307" fill="#5b5480" font-size="11.5" text-anchor="middle" font-family="JetBrains Mono, Liberation Mono, Menlo, Consolas, monospace">900 kb</text><line x1="582.835" y1="290.5" x2="582.835" y2="295.5" stroke="#adaac0" stroke-width="1.2"/><text x="582.835" y="307" fill="#5b5480" font-size="11.5" text-anchor="middle" font-family="JetBrains Mono, Liberation Mono, Menlo, Consolas, monospace">905 kb</text><line x1="675.884" y1="290.5" x2="675.884" y2="295.5" stroke="#adaac0" stroke-width="1.2"/><text x="675.884" y="307" fill="#5b5480" font-size="11.5" text-anchor="middle" font-family="JetBrains Mono, Liberation Mono, Menlo, Consolas, monospace">910 kb</text><line x1="768.933" y1="290.5" x2="768.933" y2="295.5" stroke="#adaac0" stroke-width="1.2"/><text x="768.933" y="307" fill="#5b5480" font-size="11.5" text-anchor="middle" font-family="JetBrains Mono, Liberation Mono, Menlo, Consolas, monospace">915 kb</text><line x1="861.981" y1="290.5" x2="861.981" y2="295.5" stroke="#adaac0" stroke-width="1.2"/><text x="862" y="307" fill="#5b5480" font-size="11.5" text-anchor="end" font-family="JetBrains Mono, Liberation Mono, Menlo, Consolas, monospace">920 kb</text></g></svg>